<svg width="26" height="47" viewBox="0 0 26 47" fill="none" xmlns="http://www.w3.org/2000/svg">
<path d="M6.83988 11.4994L8 11.2295V10.0384V2.62447L9.2441 1.5H16.7559L18 2.62447V10.0384V11.2295L19.1601 11.4994C22.3325 12.2375 24.5 14.783 24.5 17.625V39.1667C24.5 42.5255 21.4378 45.5 17.3333 45.5H8.66667C4.56235 45.5 1.5 42.5255 1.5 39.1667V17.625C1.5 14.783 3.6674 12.2375 6.83988 11.4994ZM4.33333 35.7083H2.83333V37.2083V39.1667C2.83333 42.2972 5.59124 44.5833 8.66667 44.5833H17.3333C20.4086 44.5833 23.1667 42.2972 23.1667 39.1667V37.2083V35.7083H21.6667H4.33333ZM21.6667 34.7917H23.1667V33.2917V23.5V22H21.6667H4.33333H2.83333V23.5V33.2917V34.7917H4.33333H21.6667ZM2.83333 19.5833V21.0833H4.33333H21.6667H23.1667V19.5833V17.625C23.1667 14.4944 20.4086 12.2083 17.3333 12.2083H16.6667V3.91667V2.41667H15.1667H10.8333H9.33333V3.91667V12.2083H8.66667C5.59127 12.2083 2.83333 14.4944 2.83333 17.625V19.5833Z" stroke="white" stroke-width="3"/>
</svg>
