<svg width="45" height="45" viewBox="0 0 45 45" fill="none" xmlns="http://www.w3.org/2000/svg">
<path d="M43.3509 2L27.27 15.7836L18.0809 6.59455L2 20.3782M5.44591 43.3509C3.54278 43.3509 2 41.8081 2 39.905V35.3105C2 33.4074 3.54278 31.8646 5.44591 31.8646C7.34904 31.8646 8.89182 33.4074 8.89182 35.3105V39.905C8.89182 41.8081 7.34904 43.3509 5.44591 43.3509ZM21.5268 43.3509C19.6238 43.3509 18.0809 41.8081 18.0809 39.905V28.4187C18.0809 26.5156 19.6238 24.9727 21.5268 24.9727C23.4299 24.9727 24.9727 26.5156 24.9727 28.4187V39.905C24.9727 41.8081 23.4299 43.3509 21.5268 43.3509ZM37.6077 43.3509C35.7047 43.3509 34.1618 41.8081 34.1618 39.905V33.0132C34.1618 31.1101 35.7047 29.5673 37.6077 29.5673C39.5108 29.5673 41.0537 31.1101 41.0537 33.0132V39.905C41.0537 41.8081 39.5108 43.3509 37.6077 43.3509Z" stroke="white" stroke-width="3" stroke-linecap="round" stroke-linejoin="round"/>
</svg>
