<svg width="41" height="45" viewBox="0 0 41 45" fill="none" xmlns="http://www.w3.org/2000/svg">
<path d="M13.4864 22.5193L18.0809 27.1138L27.27 17.9247M38.7564 22.5193C38.7564 32.7676 26.2133 40.1938 21.8517 42.4665C21.38 42.7123 21.1441 42.8352 20.817 42.8988C20.562 42.9485 20.1944 42.9485 19.9394 42.8988C19.6123 42.8352 19.3764 42.7123 18.9047 42.4665C14.543 40.1938 2 32.7676 2 22.5193V13.83C2 11.9933 2 11.075 2.30039 10.2856C2.56575 9.58821 2.99697 8.96597 3.55677 8.47263C4.19045 7.91418 5.05032 7.59174 6.77006 6.94682L19.0876 2.32776C19.5652 2.14867 19.8039 2.05912 20.0497 2.0236C20.2675 1.99213 20.4889 1.99213 20.7067 2.0236C20.9525 2.05912 21.1912 2.14867 21.6688 2.32776L33.9863 6.94682C35.7061 7.59174 36.5659 7.91418 37.1995 8.47263C37.7594 8.96597 38.1906 9.58821 38.4559 10.2856C38.7564 11.075 38.7564 11.9933 38.7564 13.83V22.5193Z" stroke="white" stroke-width="3" stroke-linecap="round" stroke-linejoin="round"/>
</svg>
