<svg width="50" height="36" viewBox="0 0 50 36" fill="none" xmlns="http://www.w3.org/2000/svg">
<path d="M47.9455 8.49714H43.3509M43.3509 8.49714H41.0537C36.4591 3.90668 29.5673 -0.692439 24.9727 3.90259M43.3509 8.49714V26.8752M24.9727 3.90259L18.0799 10.7982C17.8976 10.9805 17.8064 11.0717 17.7331 11.1524C16.1397 12.9055 16.1404 15.5825 17.7347 17.3349C17.808 17.4155 17.8994 17.5067 18.0816 17.6889C18.2639 17.8711 18.3551 17.9623 18.4358 18.0355C20.1885 19.6282 22.8648 19.628 24.6169 18.0346C24.6975 17.9613 24.7887 17.8701 24.9709 17.688L27.2691 15.3898M24.9727 3.90259C20.3782 -0.692439 13.4864 3.90684 8.89182 8.49728H6.59455M43.3509 26.8752V33.767H47.9455M43.3509 26.8752H36.8533M6.59455 8.49728H2M6.59455 8.49728V26.8752M6.59455 26.8752H11.1891L12.0666 28.6303C13.2466 30.9903 16.4978 31.2835 18.0809 29.1725C19.3335 30.4252 19.9598 31.0514 20.6355 31.3864C21.9208 32.0232 23.4301 32.0232 24.7154 31.3864C25.3911 31.0514 26.0175 30.4252 27.27 29.1725L28.4187 30.3211C28.6015 30.504 28.6932 30.5957 28.774 30.6694C30.5266 32.2623 33.2025 32.2623 34.9551 30.6694C35.036 30.5957 35.1276 30.504 35.3105 30.3211C35.4933 30.1383 35.585 30.0468 35.6585 29.9657C37.2514 28.2134 37.2514 25.5373 35.6585 23.7849C35.585 23.7038 35.4933 23.6124 35.3105 23.4293L31.8646 19.9834M6.59455 26.8752V33.767H2" stroke="white" stroke-width="3" stroke-linecap="round" stroke-linejoin="round"/>
</svg>
