<svg width="11" height="21" viewBox="0 0 11 21" fill="none" xmlns="http://www.w3.org/2000/svg">
<path d="M4.2 0C3.5093 0 2.94 0.569297 2.94 1.26V2.52C2.94 2.73984 3.01711 2.96461 3.17625 3.12375C3.29438 3.24187 3.44531 3.31734 3.60938 3.34687C3.54703 3.39609 3.46992 3.43383 3.37313 3.45187H3.36C1.45195 3.87023 0 5.55352 0 7.59937V8.82C0 9.34828 0.374063 9.72398 0.84 9.90937V15.2906C0.374063 15.476 0 15.8517 0 16.38V18.9C0 20.0534 0.946641 21 2.1 21H8.82C9.97336 21 10.92 20.0534 10.92 18.9V16.38C10.92 15.8517 10.5459 15.476 10.08 15.2906V9.90937C10.5459 9.72398 10.92 9.34828 10.92 8.82V7.59937C10.92 5.55352 9.46805 3.87023 7.56 3.45187H7.54688C7.45008 3.43383 7.37297 3.39609 7.31063 3.34687C7.47469 3.31734 7.62563 3.24187 7.74375 3.12375C7.90289 2.96461 7.98 2.73984 7.98 2.52V1.26C7.98 0.569297 7.4107 0 6.72 0H4.2ZM4.2 0.84H6.72C6.95297 0.84 7.14 1.02703 7.14 1.26V2.52H3.78V1.26C3.78 1.02703 3.96703 0.84 4.2 0.84ZM4.47563 3.36H6.44438C6.59695 3.79969 6.90703 4.17047 7.38938 4.26562V4.27875C7.39266 4.27875 7.39922 4.27875 7.4025 4.27875C8.9332 4.62 10.08 5.95383 10.08 7.59937V8.82C10.08 9.05297 9.89297 9.24 9.66 9.24H2.52V10.08H9.24V15.12H2.52V15.96H9.66C9.89297 15.96 10.08 16.147 10.08 16.38V18.9C10.08 19.5956 9.51562 20.16 8.82 20.16H2.1C1.40438 20.16 0.84 19.5956 0.84 18.9V16.38C0.84 16.147 1.02703 15.96 1.26 15.96H1.68V9.24H1.26C1.02703 9.24 0.84 9.05297 0.84 8.82V7.59937C0.84 5.95383 1.9868 4.62 3.5175 4.27875C3.52406 4.27711 3.52406 4.26727 3.53063 4.26562C4.01297 4.17047 4.32305 3.79969 4.47563 3.36Z" fill="#218DD2"/>
</svg>
