<svg width="48" height="48" viewBox="0 0 48 48" fill="none" xmlns="http://www.w3.org/2000/svg">
<g filter="url(#filter0_d_26_2756)">
<circle cx="24" cy="20" r="20" fill="#218DD2"/>
<circle cx="24" cy="20" r="19.5" stroke="white"/>
</g>
<g filter="url(#filter1_d_26_2756)">
<path d="M18.5 11C17.5625 11 16.7644 11.3786 16.252 11.9551C15.7395 12.5316 15.5 13.2708 15.5 14C15.5 14.7292 15.7395 15.4684 16.252 16.0449C16.7644 16.6214 17.5625 17 18.5 17C19.4375 17 20.2356 16.6214 20.748 16.0449C21.2605 15.4684 21.5 14.7292 21.5 14C21.5 13.2708 21.2605 12.5316 20.748 11.9551C20.2356 11.3786 19.4375 11 18.5 11ZM29.5 11C28.5625 11 27.7644 11.3786 27.252 11.9551C26.7395 12.5316 26.5 13.2708 26.5 14C26.5 14.7292 26.7395 15.4684 27.252 16.0449C27.7644 16.6214 28.5625 17 29.5 17C30.4375 17 31.2356 16.6214 31.748 16.0449C32.2605 15.4684 32.5 14.7292 32.5 14C32.5 13.2708 32.2605 12.5316 31.748 11.9551C31.2356 11.3786 30.4375 11 29.5 11ZM18.5 12.5C19.0625 12.5 19.3894 12.6839 19.627 12.9512C19.8645 13.2184 20 13.6042 20 14C20 14.3958 19.8645 14.7816 19.627 15.0488C19.3894 15.3161 19.0625 15.5 18.5 15.5C17.9375 15.5 17.6106 15.3161 17.373 15.0488C17.1355 14.7816 17 14.3958 17 14C17 13.6042 17.1355 13.2184 17.373 12.9512C17.6106 12.6839 17.9375 12.5 18.5 12.5ZM29.5 12.5C30.0625 12.5 30.3894 12.6839 30.627 12.9512C30.8645 13.2184 31 13.6042 31 14C31 14.3958 30.8645 14.7816 30.627 15.0488C30.3894 15.3161 30.0625 15.5 29.5 15.5C28.9375 15.5 28.6106 15.3161 28.373 15.0488C28.1355 14.7816 28 14.3958 28 14C28 13.6042 28.1355 13.2184 28.373 12.9512C28.6106 12.6839 28.9375 12.5 29.5 12.5ZM24 16C23.0625 16 22.2644 16.3786 21.752 16.9551C21.2395 17.5316 21 18.2708 21 19C21 19.7292 21.2395 20.4684 21.752 21.0449C22.2644 21.6214 23.0625 22 24 22C24.9375 22 25.7356 21.6214 26.248 21.0449C26.7605 20.4684 27 19.7292 27 19C27 18.2708 26.7605 17.5316 26.248 16.9551C25.7356 16.3786 24.9375 16 24 16ZM24 17.5C24.5625 17.5 24.8894 17.6839 25.127 17.9512C25.3645 18.2184 25.5 18.6042 25.5 19C25.5 19.3958 25.3645 19.7816 25.127 20.0488C24.8894 20.3161 24.5625 20.5 24 20.5C23.4375 20.5 23.1106 20.3161 22.873 20.0488C22.6355 19.7816 22.5 19.3958 22.5 19C22.5 18.6042 22.6355 18.2184 22.873 17.9512C23.1106 17.6839 23.4375 17.5 24 17.5ZM15.75 18C14.785 18 14 18.785 14 19.75V21C14 22.68 15.975 24 18.5 24H18.6055C18.8305 23.195 19.4197 22.5398 20.1797 22.2148C19.7047 22.3898 19.13 22.5 18.5 22.5C16.785 22.5 15.5 21.71 15.5 21V19.75C15.5 19.61 15.61 19.5 15.75 19.5H20.0303C20.0103 19.335 20 19.17 20 19C20 18.655 20.045 18.32 20.125 18H15.75ZM27.875 18C27.955 18.32 28 18.655 28 19C28 19.17 27.9897 19.335 27.9697 19.5H32.25C32.39 19.5 32.5 19.61 32.5 19.75V21C32.5 21.71 31.215 22.5 29.5 22.5C28.87 22.5 28.2953 22.3898 27.8203 22.2148C28.5803 22.5398 29.1695 23.195 29.3945 24H29.5C32.025 24 34 22.68 34 21V19.75C34 18.785 33.215 18 32.25 18H27.875ZM21.25 23C20.2925 23 19.5 23.7925 19.5 24.75V26C19.5 26.9591 20.14 27.7406 20.9629 28.2344C21.7858 28.7281 22.8429 29 24 29C25.1571 29 26.2142 28.7281 27.0371 28.2344C27.86 27.7406 28.5 26.9591 28.5 26V24.75C28.5 23.7925 27.7075 23 26.75 23H21.25ZM21.25 24.5H26.75C26.8975 24.5 27 24.6025 27 24.75V26C27 26.2834 26.7999 26.6276 26.2656 26.9482C25.7313 27.2688 24.9139 27.5 24 27.5C23.0861 27.5 22.2687 27.2688 21.7344 26.9482C21.2001 26.6276 21 26.2834 21 26V24.75C21 24.6025 21.1025 24.5 21.25 24.5Z" fill="white"/>
</g>
<defs>
<filter id="filter0_d_26_2756" x="0" y="0" width="48" height="48" filterUnits="userSpaceOnUse" color-interpolation-filters="sRGB">
<feFlood flood-opacity="0" result="BackgroundImageFix"/>
<feColorMatrix in="SourceAlpha" type="matrix" values="0 0 0 0 0 0 0 0 0 0 0 0 0 0 0 0 0 0 127 0" result="hardAlpha"/>
<feOffset dy="4"/>
<feGaussianBlur stdDeviation="2"/>
<feComposite in2="hardAlpha" operator="out"/>
<feColorMatrix type="matrix" values="0 0 0 0 0 0 0 0 0 0 0 0 0 0 0 0 0 0 0.25 0"/>
<feBlend mode="normal" in2="BackgroundImageFix" result="effect1_dropShadow_26_2756"/>
<feBlend mode="normal" in="SourceGraphic" in2="effect1_dropShadow_26_2756" result="shape"/>
</filter>
<filter id="filter1_d_26_2756" x="10" y="11" width="28" height="26" filterUnits="userSpaceOnUse" color-interpolation-filters="sRGB">
<feFlood flood-opacity="0" result="BackgroundImageFix"/>
<feColorMatrix in="SourceAlpha" type="matrix" values="0 0 0 0 0 0 0 0 0 0 0 0 0 0 0 0 0 0 127 0" result="hardAlpha"/>
<feOffset dy="4"/>
<feGaussianBlur stdDeviation="2"/>
<feComposite in2="hardAlpha" operator="out"/>
<feColorMatrix type="matrix" values="0 0 0 0 0 0 0 0 0 0 0 0 0 0 0 0 0 0 0.25 0"/>
<feBlend mode="normal" in2="BackgroundImageFix" result="effect1_dropShadow_26_2756"/>
<feBlend mode="normal" in="SourceGraphic" in2="effect1_dropShadow_26_2756" result="shape"/>
</filter>
</defs>
</svg>
