<svg width="28" height="26" viewBox="0 0 28 26" fill="none" xmlns="http://www.w3.org/2000/svg">
<g filter="url(#filter0_d_26_2758)">
<path d="M8.5 0C7.5625 0 6.76441 0.378567 6.25195 0.955078C5.7395 1.53159 5.5 2.27083 5.5 3C5.5 3.72917 5.7395 4.46841 6.25195 5.04492C6.76441 5.62143 7.5625 6 8.5 6C9.4375 6 10.2356 5.62143 10.748 5.04492C11.2605 4.46841 11.5 3.72917 11.5 3C11.5 2.27083 11.2605 1.53159 10.748 0.955078C10.2356 0.378567 9.4375 0 8.5 0ZM19.5 0C18.5625 0 17.7644 0.378567 17.252 0.955078C16.7395 1.53159 16.5 2.27083 16.5 3C16.5 3.72917 16.7395 4.46841 17.252 5.04492C17.7644 5.62143 18.5625 6 19.5 6C20.4375 6 21.2356 5.62143 21.748 5.04492C22.2605 4.46841 22.5 3.72917 22.5 3C22.5 2.27083 22.2605 1.53159 21.748 0.955078C21.2356 0.378567 20.4375 0 19.5 0ZM8.5 1.5C9.0625 1.5 9.38941 1.68393 9.62695 1.95117C9.8645 2.21841 10 2.60417 10 3C10 3.39583 9.8645 3.78159 9.62695 4.04883C9.38941 4.31607 9.0625 4.5 8.5 4.5C7.9375 4.5 7.61059 4.31607 7.37305 4.04883C7.1355 3.78159 7 3.39583 7 3C7 2.60417 7.1355 2.21841 7.37305 1.95117C7.61059 1.68393 7.9375 1.5 8.5 1.5ZM19.5 1.5C20.0625 1.5 20.3894 1.68393 20.627 1.95117C20.8645 2.21841 21 2.60417 21 3C21 3.39583 20.8645 3.78159 20.627 4.04883C20.3894 4.31607 20.0625 4.5 19.5 4.5C18.9375 4.5 18.6106 4.31607 18.373 4.04883C18.1355 3.78159 18 3.39583 18 3C18 2.60417 18.1355 2.21841 18.373 1.95117C18.6106 1.68393 18.9375 1.5 19.5 1.5ZM14 5C13.0625 5 12.2644 5.37857 11.752 5.95508C11.2395 6.53159 11 7.27083 11 8C11 8.72917 11.2395 9.46841 11.752 10.0449C12.2644 10.6214 13.0625 11 14 11C14.9375 11 15.7356 10.6214 16.248 10.0449C16.7605 9.46841 17 8.72917 17 8C17 7.27083 16.7605 6.53159 16.248 5.95508C15.7356 5.37857 14.9375 5 14 5ZM14 6.5C14.5625 6.5 14.8894 6.68393 15.127 6.95117C15.3645 7.21841 15.5 7.60417 15.5 8C15.5 8.39583 15.3645 8.78159 15.127 9.04883C14.8894 9.31607 14.5625 9.5 14 9.5C13.4375 9.5 13.1106 9.31607 12.873 9.04883C12.6355 8.78159 12.5 8.39583 12.5 8C12.5 7.60417 12.6355 7.21841 12.873 6.95117C13.1106 6.68393 13.4375 6.5 14 6.5ZM5.75 7C4.785 7 4 7.785 4 8.75V10C4 11.68 5.975 13 8.5 13H8.60547C8.83047 12.195 9.41969 11.5398 10.1797 11.2148C9.70469 11.3898 9.13 11.5 8.5 11.5C6.785 11.5 5.5 10.71 5.5 10V8.75C5.5 8.61 5.61 8.5 5.75 8.5H10.0303C10.0103 8.335 10 8.17 10 8C10 7.655 10.045 7.32 10.125 7H5.75ZM17.875 7C17.955 7.32 18 7.655 18 8C18 8.17 17.9897 8.335 17.9697 8.5H22.25C22.39 8.5 22.5 8.61 22.5 8.75V10C22.5 10.71 21.215 11.5 19.5 11.5C18.87 11.5 18.2953 11.3898 17.8203 11.2148C18.5803 11.5398 19.1695 12.195 19.3945 13H19.5C22.025 13 24 11.68 24 10V8.75C24 7.785 23.215 7 22.25 7H17.875ZM11.25 12C10.2925 12 9.5 12.7925 9.5 13.75V15C9.5 15.9591 10.14 16.7406 10.9629 17.2344C11.7858 17.7281 12.8429 18 14 18C15.1571 18 16.2142 17.7281 17.0371 17.2344C17.86 16.7406 18.5 15.9591 18.5 15V13.75C18.5 12.7925 17.7075 12 16.75 12H11.25ZM11.25 13.5H16.75C16.8975 13.5 17 13.6025 17 13.75V15C17 15.2834 16.7999 15.6276 16.2656 15.9482C15.7313 16.2688 14.9139 16.5 14 16.5C13.0861 16.5 12.2687 16.2688 11.7344 15.9482C11.2001 15.6276 11 15.2834 11 15V13.75C11 13.6025 11.1025 13.5 11.25 13.5Z" fill="white"/>
</g>
<defs>
<filter id="filter0_d_26_2758" x="0" y="0" width="28" height="26" filterUnits="userSpaceOnUse" color-interpolation-filters="sRGB">
<feFlood flood-opacity="0" result="BackgroundImageFix"/>
<feColorMatrix in="SourceAlpha" type="matrix" values="0 0 0 0 0 0 0 0 0 0 0 0 0 0 0 0 0 0 127 0" result="hardAlpha"/>
<feOffset dy="4"/>
<feGaussianBlur stdDeviation="2"/>
<feComposite in2="hardAlpha" operator="out"/>
<feColorMatrix type="matrix" values="0 0 0 0 0 0 0 0 0 0 0 0 0 0 0 0 0 0 0.25 0"/>
<feBlend mode="normal" in2="BackgroundImageFix" result="effect1_dropShadow_26_2758"/>
<feBlend mode="normal" in="SourceGraphic" in2="effect1_dropShadow_26_2758" result="shape"/>
</filter>
</defs>
</svg>
