<svg width="40" height="40" viewBox="0 0 40 40" fill="none" xmlns="http://www.w3.org/2000/svg">
<circle cx="20" cy="20" r="19.5" fill="#218DD2" stroke="white"/>
<g filter="url(#filter0_d_26_2463)">
<path d="M14.5 11C13.5625 11 12.7644 11.3786 12.252 11.9551C11.7395 12.5316 11.5 13.2708 11.5 14C11.5 14.7292 11.7395 15.4684 12.252 16.0449C12.7644 16.6214 13.5625 17 14.5 17C15.4375 17 16.2356 16.6214 16.748 16.0449C17.2605 15.4684 17.5 14.7292 17.5 14C17.5 13.2708 17.2605 12.5316 16.748 11.9551C16.2356 11.3786 15.4375 11 14.5 11ZM25.5 11C24.5625 11 23.7644 11.3786 23.252 11.9551C22.7395 12.5316 22.5 13.2708 22.5 14C22.5 14.7292 22.7395 15.4684 23.252 16.0449C23.7644 16.6214 24.5625 17 25.5 17C26.4375 17 27.2356 16.6214 27.748 16.0449C28.2605 15.4684 28.5 14.7292 28.5 14C28.5 13.2708 28.2605 12.5316 27.748 11.9551C27.2356 11.3786 26.4375 11 25.5 11ZM14.5 12.5C15.0625 12.5 15.3894 12.6839 15.627 12.9512C15.8645 13.2184 16 13.6042 16 14C16 14.3958 15.8645 14.7816 15.627 15.0488C15.3894 15.3161 15.0625 15.5 14.5 15.5C13.9375 15.5 13.6106 15.3161 13.373 15.0488C13.1355 14.7816 13 14.3958 13 14C13 13.6042 13.1355 13.2184 13.373 12.9512C13.6106 12.6839 13.9375 12.5 14.5 12.5ZM25.5 12.5C26.0625 12.5 26.3894 12.6839 26.627 12.9512C26.8645 13.2184 27 13.6042 27 14C27 14.3958 26.8645 14.7816 26.627 15.0488C26.3894 15.3161 26.0625 15.5 25.5 15.5C24.9375 15.5 24.6106 15.3161 24.373 15.0488C24.1355 14.7816 24 14.3958 24 14C24 13.6042 24.1355 13.2184 24.373 12.9512C24.6106 12.6839 24.9375 12.5 25.5 12.5ZM20 16C19.0625 16 18.2644 16.3786 17.752 16.9551C17.2395 17.5316 17 18.2708 17 19C17 19.7292 17.2395 20.4684 17.752 21.0449C18.2644 21.6214 19.0625 22 20 22C20.9375 22 21.7356 21.6214 22.248 21.0449C22.7605 20.4684 23 19.7292 23 19C23 18.2708 22.7605 17.5316 22.248 16.9551C21.7356 16.3786 20.9375 16 20 16ZM20 17.5C20.5625 17.5 20.8894 17.6839 21.127 17.9512C21.3645 18.2184 21.5 18.6042 21.5 19C21.5 19.3958 21.3645 19.7816 21.127 20.0488C20.8894 20.3161 20.5625 20.5 20 20.5C19.4375 20.5 19.1106 20.3161 18.873 20.0488C18.6355 19.7816 18.5 19.3958 18.5 19C18.5 18.6042 18.6355 18.2184 18.873 17.9512C19.1106 17.6839 19.4375 17.5 20 17.5ZM11.75 18C10.785 18 10 18.785 10 19.75V21C10 22.68 11.975 24 14.5 24H14.6055C14.8305 23.195 15.4197 22.5398 16.1797 22.2148C15.7047 22.3898 15.13 22.5 14.5 22.5C12.785 22.5 11.5 21.71 11.5 21V19.75C11.5 19.61 11.61 19.5 11.75 19.5H16.0303C16.0103 19.335 16 19.17 16 19C16 18.655 16.045 18.32 16.125 18H11.75ZM23.875 18C23.955 18.32 24 18.655 24 19C24 19.17 23.9897 19.335 23.9697 19.5H28.25C28.39 19.5 28.5 19.61 28.5 19.75V21C28.5 21.71 27.215 22.5 25.5 22.5C24.87 22.5 24.2953 22.3898 23.8203 22.2148C24.5803 22.5398 25.1695 23.195 25.3945 24H25.5C28.025 24 30 22.68 30 21V19.75C30 18.785 29.215 18 28.25 18H23.875ZM17.25 23C16.2925 23 15.5 23.7925 15.5 24.75V26C15.5 26.9591 16.14 27.7406 16.9629 28.2344C17.7858 28.7281 18.8429 29 20 29C21.1571 29 22.2142 28.7281 23.0371 28.2344C23.86 27.7406 24.5 26.9591 24.5 26V24.75C24.5 23.7925 23.7075 23 22.75 23H17.25ZM17.25 24.5H22.75C22.8975 24.5 23 24.6025 23 24.75V26C23 26.2834 22.7999 26.6276 22.2656 26.9482C21.7313 27.2688 20.9139 27.5 20 27.5C19.0861 27.5 18.2687 27.2688 17.7344 26.9482C17.2001 26.6276 17 26.2834 17 26V24.75C17 24.6025 17.1025 24.5 17.25 24.5Z" fill="white"/>
</g>
<defs>
<filter id="filter0_d_26_2463" x="6" y="11" width="28" height="26" filterUnits="userSpaceOnUse" color-interpolation-filters="sRGB">
<feFlood flood-opacity="0" result="BackgroundImageFix"/>
<feColorMatrix in="SourceAlpha" type="matrix" values="0 0 0 0 0 0 0 0 0 0 0 0 0 0 0 0 0 0 127 0" result="hardAlpha"/>
<feOffset dy="4"/>
<feGaussianBlur stdDeviation="2"/>
<feComposite in2="hardAlpha" operator="out"/>
<feColorMatrix type="matrix" values="0 0 0 0 0 0 0 0 0 0 0 0 0 0 0 0 0 0 0.25 0"/>
<feBlend mode="normal" in2="BackgroundImageFix" result="effect1_dropShadow_26_2463"/>
<feBlend mode="normal" in="SourceGraphic" in2="effect1_dropShadow_26_2463" result="shape"/>
</filter>
</defs>
</svg>
