<svg width="28" height="28" viewBox="0 0 28 28" fill="none" xmlns="http://www.w3.org/2000/svg">
<g filter="url(#filter0_d_2266_3896)">
<path fill-rule="evenodd" clip-rule="evenodd" d="M10.3633 7.27415C10.3633 5.76792 11.5843 4.54688 13.0906 4.54688H13.9996C14.1921 4.54697 14.3858 4.57028 14.5753 4.60187C14.8905 4.6544 15.3246 4.76117 15.7698 4.98377C16.2186 5.20815 16.695 5.55898 17.0572 6.10226C17.4232 6.65122 17.636 7.34232 17.636 8.1832C17.636 9.02406 17.4232 9.71515 17.0572 10.2641C16.695 10.8074 16.2186 11.1582 15.7698 11.3827C15.3246 11.6052 14.8905 11.7121 14.5753 11.7646C14.3869 11.796 14.195 11.8184 14.0037 11.8196H12.1815V14.5469C12.1815 15.049 11.7745 15.456 11.2724 15.456C10.7703 15.456 10.3633 15.049 10.3633 14.5469V7.27415ZM12.1815 7.27415V10.0014L13.9999 10.0012C14.3272 9.99033 14.6649 9.90233 14.9567 9.75642C15.1897 9.63988 15.3952 9.47942 15.5444 9.2556C15.6897 9.03751 15.8178 8.70597 15.8178 8.1832C15.8178 7.66048 15.6897 7.32888 15.5444 7.11081C15.3952 6.88706 15.1898 6.72653 14.9567 6.61C14.6649 6.46408 14.3272 6.37613 14 6.36522L13.0906 6.36506C12.5885 6.36506 12.1815 6.77208 12.1815 7.27415Z" fill="white"/>
</g>
<g filter="url(#filter1_d_2266_3896)">
<path fill-rule="evenodd" clip-rule="evenodd" d="M14 20C19.5228 20 24 15.5228 24 10C24 4.47715 19.5228 0 14 0C8.47715 0 4 4.47715 4 10C4 15.5228 8.47715 20 14 20ZM14 18.1756C9.48474 18.1756 5.82439 14.5153 5.82439 10C5.82439 5.48474 9.48474 1.82439 14 1.82439C18.5153 1.82439 22.1756 5.48474 22.1756 10C22.1756 14.5153 18.5153 18.1756 14 18.1756Z" fill="white"/>
</g>
<defs>
<filter id="filter0_d_2266_3896" x="6.36328" y="4.54688" width="15.2729" height="18.9092" filterUnits="userSpaceOnUse" color-interpolation-filters="sRGB">
<feFlood flood-opacity="0" result="BackgroundImageFix"/>
<feColorMatrix in="SourceAlpha" type="matrix" values="0 0 0 0 0 0 0 0 0 0 0 0 0 0 0 0 0 0 127 0" result="hardAlpha"/>
<feOffset dy="4"/>
<feGaussianBlur stdDeviation="2"/>
<feComposite in2="hardAlpha" operator="out"/>
<feColorMatrix type="matrix" values="0 0 0 0 0 0 0 0 0 0 0 0 0 0 0 0 0 0 0.25 0"/>
<feBlend mode="normal" in2="BackgroundImageFix" result="effect1_dropShadow_2266_3896"/>
<feBlend mode="normal" in="SourceGraphic" in2="effect1_dropShadow_2266_3896" result="shape"/>
</filter>
<filter id="filter1_d_2266_3896" x="0" y="0" width="28" height="28" filterUnits="userSpaceOnUse" color-interpolation-filters="sRGB">
<feFlood flood-opacity="0" result="BackgroundImageFix"/>
<feColorMatrix in="SourceAlpha" type="matrix" values="0 0 0 0 0 0 0 0 0 0 0 0 0 0 0 0 0 0 127 0" result="hardAlpha"/>
<feOffset dy="4"/>
<feGaussianBlur stdDeviation="2"/>
<feComposite in2="hardAlpha" operator="out"/>
<feColorMatrix type="matrix" values="0 0 0 0 0 0 0 0 0 0 0 0 0 0 0 0 0 0 0.25 0"/>
<feBlend mode="normal" in2="BackgroundImageFix" result="effect1_dropShadow_2266_3896"/>
<feBlend mode="normal" in="SourceGraphic" in2="effect1_dropShadow_2266_3896" result="shape"/>
</filter>
</defs>
</svg>
