<svg width="48" height="48" viewBox="0 0 48 48" fill="none" xmlns="http://www.w3.org/2000/svg">
<g filter="url(#filter0_d_26_2470)">
<circle cx="24" cy="20" r="20" fill="#218DD2"/>
<circle cx="24" cy="20" r="19.5" stroke="white"/>
</g>
<g filter="url(#filter1_d_26_2470)">
<path fill-rule="evenodd" clip-rule="evenodd" d="M20.3633 17.2741C20.3633 15.7679 21.5843 14.5469 23.0906 14.5469H23.9996C24.1921 14.547 24.3858 14.5703 24.5753 14.6019C24.8905 14.6544 25.3246 14.7612 25.7698 14.9838C26.2186 15.2081 26.695 15.559 27.0572 16.1023C27.4232 16.6512 27.636 17.3423 27.636 18.1832C27.636 19.0241 27.4232 19.7151 27.0572 20.2641C26.695 20.8074 26.2186 21.1582 25.7698 21.3827C25.3246 21.6052 24.8905 21.7121 24.5753 21.7646C24.3869 21.796 24.195 21.8184 24.0037 21.8196H22.1815V24.5469C22.1815 25.049 21.7745 25.456 21.2724 25.456C20.7703 25.456 20.3633 25.049 20.3633 24.5469V17.2741ZM22.1815 17.2741V20.0014L23.9999 20.0012C24.3272 19.9903 24.6649 19.9023 24.9567 19.7564C25.1897 19.6399 25.3952 19.4794 25.5444 19.2556C25.6897 19.0375 25.8178 18.706 25.8178 18.1832C25.8178 17.6605 25.6897 17.3289 25.5444 17.1108C25.3952 16.8871 25.1898 16.7265 24.9567 16.61C24.6649 16.4641 24.3272 16.3761 24 16.3652L23.0906 16.3651C22.5885 16.3651 22.1815 16.7721 22.1815 17.2741Z" fill="white"/>
</g>
<g filter="url(#filter2_d_26_2470)">
<path fill-rule="evenodd" clip-rule="evenodd" d="M24 30C29.5228 30 34 25.5228 34 20C34 14.4772 29.5228 10 24 10C18.4772 10 14 14.4772 14 20C14 25.5228 18.4772 30 24 30ZM24 28.1756C19.4847 28.1756 15.8244 24.5153 15.8244 20C15.8244 15.4847 19.4847 11.8244 24 11.8244C28.5153 11.8244 32.1756 15.4847 32.1756 20C32.1756 24.5153 28.5153 28.1756 24 28.1756Z" fill="white"/>
</g>
<defs>
<filter id="filter0_d_26_2470" x="0" y="0" width="48" height="48" filterUnits="userSpaceOnUse" color-interpolation-filters="sRGB">
<feFlood flood-opacity="0" result="BackgroundImageFix"/>
<feColorMatrix in="SourceAlpha" type="matrix" values="0 0 0 0 0 0 0 0 0 0 0 0 0 0 0 0 0 0 127 0" result="hardAlpha"/>
<feOffset dy="4"/>
<feGaussianBlur stdDeviation="2"/>
<feComposite in2="hardAlpha" operator="out"/>
<feColorMatrix type="matrix" values="0 0 0 0 0 0 0 0 0 0 0 0 0 0 0 0 0 0 0.25 0"/>
<feBlend mode="normal" in2="BackgroundImageFix" result="effect1_dropShadow_26_2470"/>
<feBlend mode="normal" in="SourceGraphic" in2="effect1_dropShadow_26_2470" result="shape"/>
</filter>
<filter id="filter1_d_26_2470" x="16.3633" y="14.5469" width="15.2729" height="18.9092" filterUnits="userSpaceOnUse" color-interpolation-filters="sRGB">
<feFlood flood-opacity="0" result="BackgroundImageFix"/>
<feColorMatrix in="SourceAlpha" type="matrix" values="0 0 0 0 0 0 0 0 0 0 0 0 0 0 0 0 0 0 127 0" result="hardAlpha"/>
<feOffset dy="4"/>
<feGaussianBlur stdDeviation="2"/>
<feComposite in2="hardAlpha" operator="out"/>
<feColorMatrix type="matrix" values="0 0 0 0 0 0 0 0 0 0 0 0 0 0 0 0 0 0 0.25 0"/>
<feBlend mode="normal" in2="BackgroundImageFix" result="effect1_dropShadow_26_2470"/>
<feBlend mode="normal" in="SourceGraphic" in2="effect1_dropShadow_26_2470" result="shape"/>
</filter>
<filter id="filter2_d_26_2470" x="10" y="10" width="28" height="28" filterUnits="userSpaceOnUse" color-interpolation-filters="sRGB">
<feFlood flood-opacity="0" result="BackgroundImageFix"/>
<feColorMatrix in="SourceAlpha" type="matrix" values="0 0 0 0 0 0 0 0 0 0 0 0 0 0 0 0 0 0 127 0" result="hardAlpha"/>
<feOffset dy="4"/>
<feGaussianBlur stdDeviation="2"/>
<feComposite in2="hardAlpha" operator="out"/>
<feColorMatrix type="matrix" values="0 0 0 0 0 0 0 0 0 0 0 0 0 0 0 0 0 0 0.25 0"/>
<feBlend mode="normal" in2="BackgroundImageFix" result="effect1_dropShadow_26_2470"/>
<feBlend mode="normal" in="SourceGraphic" in2="effect1_dropShadow_26_2470" result="shape"/>
</filter>
</defs>
</svg>
