<svg width="15" height="15" viewBox="0 0 15 15" fill="none" xmlns="http://www.w3.org/2000/svg">
<path d="M7.67686 14.0281C6.57028 14.0281 5.58665 13.877 4.72598 13.5749C3.86882 13.2763 3.14515 12.8354 2.55497 12.2523C1.9648 11.6726 1.5169 10.9648 1.21127 10.1287C0.905639 9.29264 0.751069 8.33714 0.747559 7.26214C0.751069 6.21174 0.907399 5.26504 1.21654 4.42194C1.52568 3.5753 1.97709 2.85164 2.57078 2.25092C3.16447 1.64669 3.8899 1.18298 4.74706 0.85979C5.60422 0.5366 6.57906 0.375 7.67156 0.375C8.70086 0.375 9.61246 0.53133 10.4065 0.84398C11.2039 1.15664 11.8766 1.59224 12.4247 2.1508C12.9762 2.70585 13.3925 3.35574 13.6735 4.10044C13.9581 4.84174 14.1003 5.64614 14.1003 6.51384C14.1003 7.11464 14.0547 7.68374 13.9633 8.22114C13.872 8.75514 13.7157 9.22944 13.4943 9.64394C13.2765 10.0584 12.9797 10.3886 12.6038 10.6345C12.2279 10.8769 11.7572 11.0087 11.1916 11.0297C10.8368 11.0473 10.5259 11.0139 10.2589 10.9296C9.99186 10.8453 9.77586 10.7136 9.61076 10.5344C9.44916 10.3517 9.34726 10.1287 9.30516 9.86524H9.24186C9.16106 10.076 9.00826 10.2692 8.78346 10.4448C8.56216 10.617 8.28816 10.7522 7.96136 10.8506C7.63466 10.9454 7.27111 10.9841 6.87064 10.9665C6.44206 10.9454 6.04509 10.8471 5.67975 10.6714C5.31791 10.4923 5.00175 10.2428 4.73125 9.92324C4.46426 9.60004 4.257 9.21004 4.10946 8.75344C3.96191 8.29674 3.88814 7.77854 3.88814 7.19894C3.88814 6.63334 3.96894 6.13444 4.13053 5.70244C4.29213 5.27034 4.50818 4.90144 4.77867 4.59584C5.05268 4.29014 5.36182 4.05134 5.70609 3.87917C6.05036 3.70353 6.40517 3.59111 6.77052 3.54193C7.14992 3.48924 7.50646 3.49451 7.84026 3.55774C8.17396 3.62097 8.45146 3.71758 8.67276 3.84756C8.89756 3.97754 9.03816 4.11984 9.09436 4.27434H9.16806V3.6842H10.6383V8.70074C10.6418 8.96414 10.7051 9.17674 10.828 9.33834C10.9545 9.49994 11.1301 9.58074 11.355 9.58074C11.636 9.58074 11.8626 9.47004 12.0347 9.24874C12.2104 9.02394 12.3368 8.67964 12.4141 8.21594C12.4949 7.74864 12.5336 7.15144 12.53 6.42434C12.5336 5.82714 12.4545 5.28614 12.2929 4.80134C12.1348 4.31304 11.91 3.88444 11.6184 3.51558C11.3269 3.14672 10.9773 2.83934 10.5698 2.59343C10.1658 2.34401 9.71616 2.15607 9.22076 2.0296C8.72546 1.90314 8.19676 1.8399 7.63466 1.8399C6.77403 1.8399 6.01699 1.97164 5.36358 2.23511C4.71017 2.49507 4.16215 2.86569 3.71952 3.34696C3.2804 3.82824 2.94843 4.39914 2.7236 5.05954C2.50228 5.71644 2.39162 6.44364 2.39162 7.24104C2.39162 8.09474 2.50755 8.85174 2.7394 9.51224C2.97477 10.1691 3.31904 10.7224 3.77221 11.172C4.22538 11.6217 4.7857 11.9624 5.45316 12.1943C6.12413 12.4261 6.89523 12.5421 7.76646 12.5421C8.16696 12.5421 8.55856 12.5105 8.94156 12.4472C9.32446 12.384 9.66866 12.3102 9.97436 12.2259C10.28 12.1416 10.5154 12.0678 10.6805 12.0046L11.1284 13.343C10.9106 13.4554 10.6155 13.5643 10.2431 13.6697C9.87426 13.7751 9.46666 13.8612 9.02056 13.9279C8.57796 13.9947 8.13006 14.0281 7.67686 14.0281ZM7.308 9.45424C7.75416 9.45424 8.11066 9.36814 8.37766 9.19604C8.64466 9.02034 8.83616 8.76044 8.95206 8.41614C9.06796 8.07184 9.12416 7.64334 9.12066 7.13044C9.12066 6.65264 9.06096 6.26094 8.94156 5.95534C8.82206 5.64974 8.63066 5.42314 8.36716 5.27554C8.10366 5.12804 7.75416 5.05424 7.31854 5.05424C6.92509 5.05424 6.5896 5.14384 6.31208 5.32304C6.03807 5.50214 5.82729 5.74984 5.67975 6.06594C5.53571 6.37864 5.4637 6.73524 5.4637 7.13564C5.4637 7.53614 5.52166 7.91384 5.63759 8.26864C5.75703 8.61994 5.95024 8.90624 6.21723 9.12754C6.48772 9.34534 6.85132 9.45424 7.308 9.45424Z" fill="#2C2C2C"/>
</svg>
