<svg width="14" height="19" viewBox="0 0 14 19" fill="none" xmlns="http://www.w3.org/2000/svg">
<path fill-rule="evenodd" clip-rule="evenodd" d="M6.99844 2.28868C4.11646 2.28868 1.88716 4.43944 1.88716 6.9911C1.88716 9.27603 3.23463 11.9295 4.68852 14.0984C5.40276 15.1639 6.11836 16.0774 6.6557 16.7245C6.77883 16.8728 6.89242 17.0069 6.99427 17.1255C7.09752 17.0037 7.21293 16.8656 7.33819 16.7128C7.87606 16.0567 8.5923 15.1324 9.30716 14.0593C10.7638 11.8728 12.1097 9.22051 12.1097 6.9911C12.1097 4.43944 9.88041 2.28868 6.99844 2.28868ZM7.54394 18.7585C7.40386 18.9097 7.20754 18.996 7.00167 18.9969C6.79579 18.9978 6.59874 18.9132 6.45735 18.7632C6.97006 18.2778 7.02703 18.2776 7.54394 18.7585ZM0.398438 6.9911C0.398438 3.51328 3.40017 0.796875 6.99844 0.796875C10.5967 0.796875 13.5984 3.51328 13.5984 6.9911C13.5984 9.70151 12.0166 12.6791 10.5453 14.8876C9.7963 16.012 9.04863 16.9765 8.48857 17.6597C8.2082 18.0018 7.97401 18.2743 7.80903 18.4623C7.72652 18.5563 7.66127 18.6293 7.61614 18.6793C7.59358 18.7042 7.57604 18.7235 7.56389 18.7368L7.54974 18.7522L7.54578 18.7565L7.54394 18.7585C7.02703 18.2776 6.97006 18.2778 6.45735 18.7632L6.45547 18.7612L6.45147 18.7569L6.43724 18.7417C6.42504 18.7286 6.40744 18.7096 6.38482 18.6849C6.33959 18.6357 6.27421 18.5638 6.19159 18.471C6.02638 18.2856 5.79192 18.0167 5.51129 17.6787C4.95069 17.0035 4.20239 16.0486 3.45272 14.9302C1.97879 12.7314 0.398438 9.75496 0.398438 6.9911Z" fill="black" fill-opacity="0.24"/>
<path fill-rule="evenodd" clip-rule="evenodd" d="M4.87721 5.67556C5.43982 5.11295 6.20289 4.79688 6.99854 4.79688C7.79418 4.79688 8.55725 5.11295 9.11986 5.67556C9.68247 6.23816 9.99854 7.00123 9.99854 7.79688C9.99854 8.59252 9.68247 9.35559 9.11986 9.9182C8.55725 10.4808 7.79418 10.7969 6.99854 10.7969C6.20289 10.7969 5.43982 10.4808 4.87721 9.9182C4.3146 9.35559 3.99854 8.59252 3.99854 7.79688C3.99854 7.00123 4.31461 6.23816 4.87721 5.67556ZM6.99854 6.24382C6.58664 6.24382 6.19161 6.40745 5.90036 6.6987C5.60911 6.98995 5.44548 7.38498 5.44548 7.79688C5.44548 8.20877 5.60911 8.6038 5.90036 8.89505C6.19161 9.18631 6.58664 9.34993 6.99854 9.34993C7.41043 9.34993 7.80546 9.18631 8.09671 8.89505C8.38796 8.6038 8.55159 8.20877 8.55159 7.79688C8.55159 7.38498 8.38796 6.98995 8.09671 6.6987C7.80546 6.40745 7.41043 6.24382 6.99854 6.24382Z" fill="black" fill-opacity="0.24"/>
</svg>
