<svg width="109" height="86" viewBox="0 0 109 86" fill="none" xmlns="http://www.w3.org/2000/svg">
<path fill-rule="evenodd" clip-rule="evenodd" d="M59.9115 54.8696C57.1107 54.1262 51.9084 53.5015 47.4255 53.5069C34.3117 53.524 27.6468 60.765 15.2682 60.7807C6.63678 60.7914 0.730469 57.125 0.730469 57.125C5.07917 59.7031 10.942 63.6567 23.3872 63.6406C33.8253 63.6279 43.4516 53.168 59.9115 54.8696Z" fill="#BA1313"/>
<path d="M106.586 39.2601C106.586 39.2601 102.386 65.709 89.2714 61.28C76.1563 56.851 72.909 57.5597 65.4703 59.1537C58.0319 60.7483 45.1698 69.4292 23.2031 64.8231C23.2031 64.8231 32.4755 66.3287 46.6248 60.5712C60.774 54.8133 64.1933 53.5733 77.8719 55.6105C91.5501 57.6482 93.0442 43.9675 93.0442 43.9675H77.9546L79.8214 36.4775C79.8214 36.4775 81.3496 31.5824 77.6867 30.2212H101.28C101.28 30.2212 108.937 29.2821 107.155 37.043H94.7718C94.7718 37.043 94.9102 33.8162 97.7222 32.7108C97.7222 32.7108 92.4292 30.7044 91.4555 39.2601H106.586Z" fill="#218DD2"/>
<path fill-rule="evenodd" clip-rule="evenodd" d="M32.7869 34.7045H35.8089L32.9266 46.0208H29.9516L29.9878 45.878C29.9878 45.878 29.978 45.8741 29.9754 45.8731L32.7869 34.7045ZM47.1342 36.2961C49.0185 29.914 42.8366 30.3694 42.8366 30.3694H21.6865L14.582 58.8955C18.8941 59.0393 22.8676 57.7211 27.3871 56.154L28.8109 50.5276C31.1612 53.7323 35.2841 52.7394 35.2841 52.7394C37.6527 52.1613 40.1993 51.5494 43.013 51.1038L46.8114 37.3863C46.9179 37.0283 47.0252 36.6649 47.1342 36.2961Z" fill="#218DD2"/>
<path fill-rule="evenodd" clip-rule="evenodd" d="M74.747 46.903C74.7424 46.903 74.7381 46.9 74.7381 46.8946C74.7385 46.8164 74.8497 46.0504 76.6569 38.7508C78.7154 30.4357 70.978 31.2442 70.978 31.2442H63.4519L65.9943 20.8415C58.1645 20.4087 52.5921 24.1588 49.3798 37.2223L45.3867 51.6514C45.8944 51.6127 47.9499 51.4919 48.4747 51.468C52.4575 51.2875 55.4973 51.3095 58.2356 51.4557L62.2466 35.7138H65.1045L61.0041 51.6577C67.583 52.2687 71.5777 53.5883 78.2895 54.0769C88.3698 54.8106 89.9419 46.903 89.9419 46.903H74.747Z" fill="#218DD2"/>
<path d="M75.391 23.2458C75.3391 23.1734 75.2743 23.1367 75.1972 23.1367H74.5562L74.3279 23.9877H74.9902C75.0746 23.9877 75.1606 23.9457 75.2492 23.863C75.3382 23.7794 75.3983 23.6737 75.4289 23.5436C75.4562 23.4184 75.4438 23.3186 75.391 23.2458ZM76.3345 24.0778C76.2633 24.2308 76.1696 24.3634 76.0542 24.4769C75.9392 24.5894 75.7999 24.6784 75.6372 24.7454C75.4745 24.8114 75.2875 24.8447 75.0776 24.8447H74.0945L73.7065 26.2812H72.6289L73.7137 22.2548H75.4064C75.6061 22.2548 75.7799 22.292 75.9286 22.3668C76.0772 22.4416 76.1986 22.5404 76.2923 22.6652C76.386 22.7899 76.4499 22.9322 76.4835 23.0907C76.5163 23.2502 76.518 23.416 76.4874 23.5896C76.4567 23.7628 76.406 23.9247 76.3345 24.0778Z" fill="#218DD2"/>
<path d="M79.3201 23.4502L78.5858 24.808H79.3111L79.3201 23.4502ZM79.3094 26.2812L79.3103 25.6484H78.1377L77.7957 26.2812H76.5234L78.9014 22.2548H80.2367L80.4449 26.2812H79.3094Z" fill="#218DD2"/>
<path d="M84.7726 23.6897C84.7436 23.5165 84.6789 23.3781 84.5779 23.2764C84.477 23.1736 84.3377 23.1223 84.1584 23.1223C84.0323 23.1223 83.9101 23.1507 83.7925 23.2064C83.6741 23.2632 83.568 23.3409 83.4748 23.4422C83.3811 23.5424 83.3001 23.6647 83.2316 23.8071C83.1621 23.9499 83.1144 24.1059 83.0876 24.2751C83.0297 24.6175 83.0544 24.8939 83.1609 25.1052C83.2678 25.3165 83.4509 25.4222 83.7103 25.4222C83.8888 25.4222 84.0515 25.3703 84.1976 25.2646C84.3441 25.1605 84.4659 25.0196 84.5639 24.8425L85.3885 25.3317C85.2965 25.4804 85.1904 25.6207 85.0699 25.7513C84.9498 25.8819 84.8152 25.9954 84.6657 26.0927C84.5162 26.1891 84.3518 26.2654 84.1724 26.3216C83.9927 26.3784 83.7998 26.4062 83.5932 26.4062C83.3193 26.4062 83.0731 26.3525 82.8533 26.2458C82.6336 26.1392 82.4525 25.992 82.309 25.8027C82.1659 25.6134 82.0662 25.3884 82.0104 25.1296C81.9551 24.8699 81.9546 24.5853 82.0104 24.2751C82.0654 23.9655 82.1633 23.6794 82.3039 23.4177C82.4445 23.1565 82.6153 22.9311 82.8154 22.7423C83.0156 22.553 83.2409 22.4047 83.491 22.2981C83.7405 22.1915 84.0021 22.1387 84.2755 22.1387C84.4821 22.1387 84.6678 22.1661 84.8313 22.2223C84.9953 22.2795 85.1376 22.3553 85.2581 22.4522C85.3787 22.549 85.48 22.6616 85.5614 22.7902C85.6427 22.9188 85.7041 23.0572 85.745 23.2064L84.7726 23.6897Z" fill="#218DD2"/>
<path d="M88.9833 24.199L89.7708 26.2812H88.5769L88.1625 24.8261L87.7919 25.2066L87.5155 26.2812H86.4375L87.5223 22.2548H88.5999L88.2528 23.6434L89.4036 22.2607H90.802L88.9833 24.199Z" fill="#218DD2"/>
<path d="M91.8862 26.2812H90.8086L91.8934 22.2548H92.971L91.8862 26.2812Z" fill="#218DD2"/>
<path d="M96.8606 26.2812H95.8354L95.1982 23.9452L94.5632 26.2812H93.4805L94.5704 22.2548H95.6638L96.2575 24.4642L96.8679 22.2548H97.9454L96.8606 26.2812Z" fill="#218DD2"/>
<path d="M102.157 25.5977C101.935 25.8472 101.681 26.0443 101.397 26.1891C101.112 26.3339 100.806 26.4062 100.477 26.4062C100.206 26.4062 99.9616 26.3539 99.7422 26.2492C99.522 26.1446 99.3406 25.9988 99.1966 25.8115C99.0531 25.6251 98.9522 25.4001 98.8934 25.1389C98.8342 24.8768 98.8325 24.5896 98.8883 24.2756C98.9441 23.9611 99.0424 23.6725 99.1851 23.4094C99.3282 23.1458 99.5003 22.9203 99.7026 22.7329C99.9037 22.5461 100.129 22.3999 100.377 22.2957C100.625 22.1905 100.884 22.1387 101.154 22.1387C101.357 22.1387 101.541 22.1665 101.707 22.2228C101.873 22.2795 102.017 22.3553 102.139 22.4522C102.261 22.5495 102.364 22.662 102.447 22.7906C102.53 22.9193 102.592 23.0577 102.634 23.2064L101.661 23.6902C101.634 23.5371 101.572 23.4045 101.476 23.2915C101.379 23.179 101.234 23.1223 101.042 23.1223C100.912 23.1223 100.789 23.1507 100.673 23.2064C100.557 23.2632 100.451 23.3414 100.355 23.4426C100.26 23.5429 100.178 23.6647 100.112 23.8075C100.045 23.9504 99.9978 24.1059 99.971 24.2756C99.9135 24.618 99.9369 24.8944 100.042 25.1052C100.147 25.317 100.329 25.4221 100.589 25.4221C100.697 25.4221 100.805 25.4021 100.914 25.362C101.021 25.3219 101.113 25.2695 101.188 25.2054L101.27 24.8914H100.65L100.884 24.0218H102.582L102.157 25.5977Z" fill="#218DD2"/>
</svg>
