<svg width="142" height="60" viewBox="0 0 142 60" fill="none" xmlns="http://www.w3.org/2000/svg">
<path fill-rule="evenodd" clip-rule="evenodd" d="M78.3215 45.0749C74.6148 44.091 67.73 43.2643 61.7973 43.2715C44.4421 43.2941 35.6217 52.877 19.2395 52.8977C7.81654 52.9119 0 48.0596 0 48.0596C5.75516 51.4716 13.5142 56.7039 29.9843 56.6826C43.7984 56.6657 56.5381 42.8229 78.3215 45.0749Z" fill="#BA1313"/>
<path d="M140.087 24.41C140.087 24.41 134.53 59.4129 117.173 53.5515C99.8162 47.6901 95.5187 48.628 85.6741 50.7376C75.83 52.8478 58.808 64.3364 29.7368 58.2406C29.7368 58.2406 42.0081 60.2331 60.7335 52.6135C79.4589 44.9933 83.9841 43.3524 102.087 46.0485C120.189 48.7452 122.166 30.6398 122.166 30.6398H102.196L104.667 20.7274C104.667 20.7274 106.689 14.2491 101.841 12.4476H133.065C133.065 12.4476 143.199 11.2048 140.84 21.4757H124.452C124.452 21.4757 124.636 17.2054 128.357 15.7425C128.357 15.7425 121.352 13.0872 120.064 24.41H140.087Z" fill="white"/>
<path fill-rule="evenodd" clip-rule="evenodd" d="M42.4267 18.3937H46.4261L42.6116 33.37H38.6743L38.7222 33.181C38.7222 33.181 38.7093 33.1758 38.7059 33.1745L42.4267 18.3937ZM61.4143 20.5001C63.908 12.0539 55.7268 12.6566 55.7268 12.6566H27.7361L18.334 50.4086C24.0407 50.5989 29.2992 48.8544 35.2804 46.7804L37.1648 39.3344C40.2752 43.5756 45.7316 42.2615 45.7316 42.2615C48.8662 41.4964 52.2365 40.6866 55.9601 40.0969L60.987 21.9429C61.1279 21.4691 61.27 20.9882 61.4143 20.5001Z" fill="white"/>
<path fill-rule="evenodd" clip-rule="evenodd" d="M97.9576 34.5389C97.9514 34.5389 97.9458 34.535 97.9458 34.5279C97.9464 34.4243 98.0935 33.4106 100.485 23.7501C103.209 12.7457 92.9696 13.8157 92.9696 13.8157H83.0094L86.374 0.0486221C76.0119 -0.524254 68.6373 4.43874 64.3861 21.7272L59.1016 40.823C59.7735 40.7719 62.4938 40.612 63.1882 40.5803C68.4592 40.3414 72.4822 40.3705 76.1061 40.5641L81.4142 19.7309H85.1965L79.77 40.8315C88.4766 41.6399 93.7633 43.3864 102.646 44.0331C115.986 45.004 118.067 34.5389 118.067 34.5389H97.9576Z" fill="white"/>
<path d="M98.8068 3.22593C98.7381 3.13013 98.6524 3.08156 98.5504 3.08156H97.702L97.3999 4.20789H98.2764C98.388 4.20789 98.5019 4.15221 98.6191 4.04282C98.7369 3.93213 98.8164 3.79234 98.857 3.62015C98.8931 3.45444 98.8767 3.32238 98.8068 3.22593ZM100.055 4.32701C99.9612 4.52962 99.8372 4.70502 99.6845 4.8552C99.5323 5.00408 99.348 5.1219 99.1326 5.21059C98.9173 5.29797 98.6699 5.34199 98.392 5.34199H97.091L96.5775 7.24316H95.1514L96.5871 1.91447H98.8271C99.0915 1.91447 99.3215 1.96367 99.5182 2.06271C99.7149 2.16175 99.8756 2.29249 99.9996 2.45756C100.124 2.62262 100.208 2.81099 100.253 3.02072C100.296 3.23175 100.298 3.4512 100.258 3.68099C100.217 3.91014 100.15 4.1244 100.055 4.32701Z" fill="white"/>
<path d="M104.009 3.49653L103.037 5.29347H103.997L104.009 3.49653ZM103.995 7.24316L103.996 6.40557H102.444L101.991 7.24316H100.308L103.455 1.91447H105.222L105.497 7.24316H103.995Z" fill="white"/>
<path d="M111.228 3.80719C111.19 3.57804 111.104 3.39483 110.971 3.26018C110.837 3.12425 110.653 3.05628 110.415 3.05628C110.249 3.05628 110.087 3.09382 109.931 3.16761C109.774 3.2427 109.634 3.34562 109.511 3.47962C109.387 3.61232 109.28 3.77417 109.189 3.96253C109.097 4.15155 109.034 4.35802 108.998 4.582C108.922 5.03512 108.954 5.40086 109.095 5.6805C109.237 5.96014 109.479 6.09997 109.822 6.09997C110.059 6.09997 110.274 6.03134 110.467 5.89152C110.661 5.75364 110.822 5.56723 110.952 5.3329L112.043 5.98022C111.922 6.177 111.781 6.36276 111.622 6.5356C111.463 6.70843 111.285 6.8586 111.087 6.98742C110.889 7.11494 110.671 7.21593 110.434 7.29038C110.196 7.36546 109.941 7.40234 109.667 7.40234C109.305 7.40234 108.979 7.33118 108.688 7.19006C108.397 7.04895 108.158 6.8541 107.968 6.60359C107.778 6.35308 107.647 6.05529 107.573 5.71286C107.499 5.36914 107.499 4.99239 107.573 4.582C107.645 4.17225 107.775 3.79357 107.961 3.44726C108.147 3.10159 108.373 2.80319 108.638 2.55333C108.903 2.30282 109.201 2.10667 109.532 1.96555C109.862 1.82444 110.209 1.75454 110.57 1.75454C110.844 1.75454 111.09 1.7908 111.306 1.86524C111.523 1.94098 111.711 2.04129 111.871 2.16946C112.03 2.29763 112.164 2.44654 112.272 2.61678C112.38 2.78702 112.461 2.97018 112.515 3.16761L111.228 3.80719Z" fill="white"/>
<path d="M116.801 4.48753L117.843 7.24316H116.263L115.715 5.31742L115.224 5.821L114.858 7.24316H113.432L114.867 1.91447H116.293L115.834 3.75219L117.357 1.92225H119.208L116.801 4.48753Z" fill="white"/>
<path d="M120.639 7.24316H119.213L120.649 1.91447H122.075L120.639 7.24316Z" fill="white"/>
<path d="M127.221 7.24316H125.865L125.021 4.15159L124.181 7.24316H122.748L124.191 1.91447H125.637L126.423 4.83841L127.231 1.91447H128.657L127.221 7.24316Z" fill="white"/>
<path d="M134.232 6.33232C133.938 6.66245 133.602 6.92335 133.226 7.11496C132.849 7.30656 132.443 7.40234 132.008 7.40234C131.65 7.40234 131.326 7.33309 131.036 7.19457C130.745 7.05604 130.504 6.86313 130.314 6.61521C130.124 6.36858 129.99 6.07081 129.913 5.72515C129.834 5.37819 129.832 4.9982 129.906 4.58263C129.98 4.1664 130.11 3.78449 130.299 3.43624C130.488 3.08733 130.716 2.78892 130.984 2.541C131.25 2.29373 131.548 2.10019 131.876 1.96231C132.204 1.82314 132.547 1.75454 132.904 1.75454C133.173 1.75454 133.417 1.79143 133.636 1.86587C133.855 1.94096 134.046 2.04129 134.208 2.16946C134.37 2.29827 134.505 2.44713 134.616 2.61737C134.725 2.78762 134.808 2.97083 134.863 3.16761L133.576 3.80782C133.54 3.60521 133.458 3.42978 133.33 3.28025C133.202 3.13137 133.011 3.05628 132.756 3.05628C132.584 3.05628 132.421 3.09382 132.268 3.16761C132.114 3.2427 131.973 3.34625 131.847 3.48025C131.721 3.61295 131.613 3.77415 131.525 3.96317C131.436 4.15218 131.374 4.35801 131.339 4.58263C131.263 5.03575 131.294 5.40151 131.433 5.6805C131.571 5.96079 131.812 6.09993 132.156 6.09993C132.299 6.09993 132.443 6.0734 132.586 6.02032C132.729 5.96724 132.85 5.89797 132.95 5.81317L133.058 5.39762H132.237L132.547 4.24668H134.794L134.232 6.33232Z" fill="white"/>
</svg>
