<svg width="14" height="14" viewBox="0 0 14 14" fill="none" xmlns="http://www.w3.org/2000/svg">
<path d="M13.5696 11.0254C13.7332 11.1895 13.8558 11.3898 13.9275 11.6101C13.9992 11.8305 14.0181 12.0646 13.9825 12.2935C13.9469 12.5225 13.8579 12.7399 13.7227 12.928C13.5875 13.1162 13.4099 13.2699 13.2042 13.3766C12.029 14.0047 10.6597 14.1653 9.3711 13.826C5.95097 12.965 1.03498 8.04903 0.174002 4.6289C-0.165263 3.34027 -0.00473279 1.97101 0.623392 0.795787C0.730137 0.590134 0.883814 0.412509 1.07198 0.277296C1.26014 0.142083 1.4775 0.0530824 1.70646 0.0175015C1.93542 -0.0180794 2.16954 0.000759154 2.38986 0.072492C2.61018 0.144225 2.81052 0.266835 2.97464 0.430395L4.43411 1.88916C4.64458 2.09752 4.78699 2.36474 4.8426 2.65563C4.8982 2.94652 4.86438 3.24743 4.7456 3.51873C4.61562 3.82311 4.43105 4.10114 4.20101 4.33911C2.53225 6.00787 7.99283 11.4684 9.66089 9.79899C9.89889 9.56813 10.1772 9.38284 10.482 9.2523C10.7532 9.13332 11.0542 9.0994 11.3451 9.15501C11.6361 9.21062 11.9033 9.35315 12.1115 9.56379L13.5696 11.0254Z" fill="#444444"/>
</svg>
