<svg width="24" height="24" viewBox="0 0 24 24" fill="none" xmlns="http://www.w3.org/2000/svg">
<path d="M13.7781 13.2739L13.5503 13.5136C13.5503 13.5136 13.009 14.0835 11.5315 12.5279C10.0541 10.9724 10.5953 10.4025 10.5953 10.4025L10.7387 10.2516C11.092 9.87963 11.1253 9.28248 10.8171 8.84655L10.1866 7.95481C9.80514 7.41525 9.06798 7.34397 8.63072 7.80432L7.84592 8.63057C7.62911 8.85883 7.48382 9.15473 7.50144 9.48297C7.54652 10.3227 7.90535 12.1296 9.90768 14.2376C12.031 16.4731 14.0234 16.562 14.8381 16.4815C15.0958 16.4561 15.3199 16.3172 15.5005 16.127L16.2108 15.3793C16.6903 14.8745 16.5551 14.0091 15.9416 13.656L14.9864 13.1062C14.5836 12.8743 14.0929 12.9424 13.7781 13.2739Z" fill="#21C286"/>
<path fill-rule="evenodd" clip-rule="evenodd" d="M12 19.3125C16.0386 19.3125 19.3125 16.0386 19.3125 12C19.3125 7.96142 16.0386 4.6875 12 4.6875C7.96142 4.6875 4.6875 7.96142 4.6875 12C4.6875 16.0386 7.96142 19.3125 12 19.3125ZM12 21C16.9706 21 21 16.9706 21 12C21 7.02944 16.9706 3 12 3C7.02944 3 3 7.02944 3 12C3 16.9706 7.02944 21 12 21Z" fill="#21C286"/>
</svg>
