<svg width="13" height="12" viewBox="0 0 13 12" fill="none" xmlns="http://www.w3.org/2000/svg">
<path d="M8.77404 7.97885L8.46785 8.27184C8.46785 8.27184 7.7401 8.9684 5.75368 7.06714C3.76728 5.16595 4.49502 4.46943 4.49502 4.46943L4.68781 4.28489C5.1628 3.83031 5.20757 3.10047 4.79315 2.56766L3.94552 1.47775C3.43262 0.818291 2.44155 0.731178 1.85369 1.29382L0.798571 2.30368C0.507083 2.58267 0.311749 2.94432 0.335438 3.34551C0.396038 4.37188 0.878472 6.58022 3.57048 9.15676C6.42523 11.889 9.10383 11.9976 10.1992 11.8993C10.5457 11.8683 10.847 11.6984 11.0898 11.466L12.0447 10.5521C12.6893 9.9351 12.5076 8.87742 11.6828 8.44589L10.3985 7.77386C9.85699 7.49051 9.19727 7.57372 8.77404 7.97885Z" fill="#2C2C2C"/>
</svg>
