<svg width="16" height="16" viewBox="0 0 16 16" fill="none" xmlns="http://www.w3.org/2000/svg">
<path fill-rule="evenodd" clip-rule="evenodd" d="M8 14.5C11.5899 14.5 14.5 11.5899 14.5 8C14.5 4.41015 11.5899 1.5 8 1.5C4.41015 1.5 1.5 4.41015 1.5 8C1.5 11.5899 4.41015 14.5 8 14.5ZM8 16C12.4183 16 16 12.4183 16 8C16 3.58172 12.4183 0 8 0C3.58172 0 0 3.58172 0 8C0 12.4183 3.58172 16 8 16Z" fill="#21C286"/>
<path d="M7 9H10.25C10.6642 9 11 8.66421 11 8.25C11 7.83579 10.6642 7.5 10.25 7.5H8.5V5.75C8.5 5.33579 8.16421 5 7.75 5C7.33579 5 7 5.33579 7 5.75V9Z" fill="#21C286"/>
</svg>
