<svg width="16" height="16" viewBox="0 0 16 16" fill="none" xmlns="http://www.w3.org/2000/svg">
<path d="M2.74752 1.61145H4.83434C5.04803 1.61145 5.25297 1.52656 5.40407 1.37546C5.55517 1.22435 5.64006 1.01941 5.64006 0.805723C5.64006 0.592032 5.55517 0.387093 5.40407 0.235991C5.25297 0.0848884 5.04803 0 4.83434 0H1.61145C1.18406 0 0.774186 0.169777 0.471981 0.471981C0.169777 0.774186 0 1.18406 0 1.61145V4.83434C0 5.04803 0.0848884 5.25297 0.235991 5.40407C0.387093 5.55517 0.592032 5.64006 0.805723 5.64006C1.01941 5.64006 1.22435 5.55517 1.37546 5.40407C1.52656 5.25297 1.61145 5.04803 1.61145 4.83434V2.74752L5.068 6.21212C5.1429 6.28764 5.23201 6.34758 5.3302 6.38849C5.42838 6.4294 5.5337 6.45046 5.64006 6.45046C5.74643 6.45046 5.85174 6.4294 5.94992 6.38849C6.04811 6.34758 6.13722 6.28764 6.21212 6.21212C6.28764 6.13722 6.34758 6.04811 6.38849 5.94992C6.4294 5.85174 6.45046 5.74643 6.45046 5.64006C6.45046 5.5337 6.4294 5.42838 6.38849 5.3302C6.34758 5.23201 6.28764 5.1429 6.21212 5.068L2.74752 1.61145Z" fill="#218DD2"/>
<path d="M14.3878 0H11.1649C10.9513 0 10.7463 0.0848884 10.5952 0.235991C10.4441 0.387093 10.3592 0.592032 10.3592 0.805723C10.3592 1.01941 10.4441 1.22435 10.5952 1.37546C10.7463 1.52656 10.9513 1.61145 11.1649 1.61145H13.2518L9.78716 5.068C9.71164 5.1429 9.6517 5.23201 9.61079 5.3302C9.56989 5.42838 9.54883 5.5337 9.54883 5.64006C9.54883 5.74643 9.56989 5.85174 9.61079 5.94992C9.6517 6.04811 9.71164 6.13722 9.78716 6.21212C9.86206 6.28764 9.95118 6.34758 10.0494 6.38849C10.1475 6.4294 10.2529 6.45046 10.3592 6.45046C10.4656 6.45046 10.5709 6.4294 10.6691 6.38849C10.7673 6.34758 10.8564 6.28764 10.9313 6.21212L14.3878 2.74752V4.83434C14.3878 5.04803 14.4727 5.25297 14.6238 5.40407C14.7749 5.55517 14.9799 5.64006 15.1936 5.64006C15.4073 5.64006 15.6122 5.55517 15.7633 5.40407C15.9144 5.25297 15.9993 5.04803 15.9993 4.83434V1.61145C15.9993 1.18406 15.8295 0.774186 15.5273 0.471981C15.2251 0.169777 14.8152 0 14.3878 0Z" fill="#218DD2"/>
<path d="M5.068 9.78383L1.61145 13.2484V11.1616C1.61145 10.9479 1.52656 10.743 1.37546 10.5919C1.22435 10.4408 1.01941 10.3559 0.805723 10.3559C0.592032 10.3559 0.387093 10.4408 0.235991 10.5919C0.0848884 10.743 0 10.9479 0 11.1616V14.3845C0 14.8119 0.169777 15.2218 0.471982 15.524C0.774186 15.8262 1.18406 15.996 1.61145 15.996H4.83434C5.04803 15.996 5.25297 15.9111 5.40407 15.76C5.55517 15.6089 5.64006 15.4039 5.64006 15.1902C5.64006 14.9765 5.55517 14.7716 5.40407 14.6205C5.25297 14.4694 5.04803 14.3845 4.83434 14.3845H2.74752L6.21212 10.928C6.36385 10.7762 6.44908 10.5705 6.44908 10.3559C6.44908 10.1413 6.36385 9.93555 6.21212 9.78383C6.0604 9.63211 5.85463 9.54688 5.64006 9.54688C5.4255 9.54688 5.21972 9.63211 5.068 9.78383Z" fill="#218DD2"/>
<path d="M15.1922 10.3559C14.9785 10.3559 14.7736 10.4408 14.6225 10.5919C14.4714 10.743 14.3865 10.9479 14.3865 11.1616V13.2484L10.9299 9.78383C10.7782 9.63211 10.5724 9.54688 10.3578 9.54688C10.1433 9.54688 9.9375 9.63211 9.78578 9.78383C9.63406 9.93555 9.54883 10.1413 9.54883 10.3559C9.54883 10.5705 9.63406 10.7762 9.78578 10.928L13.2504 14.3845H11.1636C10.9499 14.3845 10.7449 14.4694 10.5938 14.6205C10.4427 14.7716 10.3578 14.9765 10.3578 15.1902C10.3578 15.4039 10.4427 15.6089 10.5938 15.76C10.7449 15.9111 10.9499 15.996 11.1636 15.996H14.3865C14.8138 15.996 15.2237 15.8262 15.5259 15.524C15.8281 15.2218 15.9979 14.8119 15.9979 14.3845V11.1616C15.9979 10.9479 15.913 10.743 15.7619 10.5919C15.6108 10.4408 15.4059 10.3559 15.1922 10.3559Z" fill="#218DD2"/>
</svg>
