<svg width="108" height="86" viewBox="0 0 108 86" fill="none" xmlns="http://www.w3.org/2000/svg">
<path fill-rule="evenodd" clip-rule="evenodd" d="M59.8139 54.7134C57.013 53.9699 51.8107 53.3453 47.3279 53.3507C34.2141 53.3678 27.5492 60.6088 15.1705 60.6244C6.53912 60.6352 0.632812 56.9687 0.632812 56.9687C4.98151 59.5469 10.8444 63.5005 23.2895 63.4843C33.7277 63.4716 43.354 53.0117 59.8139 54.7134Z" fill="#BA1313"/>
<path d="M106.484 39.1039C106.484 39.1039 102.285 65.5527 89.1698 61.1237C76.0547 56.6947 72.8075 57.4034 65.3687 58.9975C57.9303 60.592 45.0682 69.273 23.1016 64.6669C23.1016 64.6669 32.374 66.1724 46.5232 60.415C60.6724 54.657 64.0918 53.4171 77.7704 55.4543C91.4485 57.492 92.9427 43.8112 92.9427 43.8112H77.853L79.7198 36.3213C79.7198 36.3213 81.2481 31.4261 77.5851 30.0649H101.178C101.178 30.0649 108.836 29.1258 107.053 36.8867H94.6702C94.6702 36.8867 94.8087 33.66 97.6206 32.5546C97.6206 32.5546 92.3276 30.5482 91.354 39.1039H106.484Z" fill="white"/>
<path fill-rule="evenodd" clip-rule="evenodd" d="M32.6893 34.5404H35.7112L32.829 45.8567H29.8539L29.8901 45.7139C29.8901 45.7139 29.8803 45.71 29.8777 45.709L32.6893 34.5404ZM47.0366 36.132C48.9209 29.75 42.739 30.2053 42.739 30.2053H21.5888L14.4844 58.7314C18.7964 58.8752 22.7699 57.5571 27.2894 55.9899L28.7133 50.3635C31.0635 53.5683 35.1865 52.5753 35.1865 52.5753C37.5551 51.9972 40.1017 51.3853 42.9153 50.9397L46.7137 37.2223C46.8202 36.8642 46.9275 36.5008 47.0366 36.132Z" fill="white"/>
<path fill-rule="evenodd" clip-rule="evenodd" d="M74.6494 46.7467C74.6447 46.7467 74.6404 46.7438 74.6404 46.7384C74.6409 46.6601 74.752 45.8942 76.5592 38.5945C78.6177 30.2794 70.8804 31.0879 70.8804 31.0879H63.3543L65.8966 20.6853C58.0668 20.2524 52.4944 24.0025 49.2821 37.066L45.2891 51.4951C45.7968 51.4565 47.8523 51.3357 48.377 51.3117C52.3599 51.1312 55.3997 51.1532 58.138 51.2995L62.1489 35.5575H65.0069L60.9065 51.5015C67.4853 52.1124 71.4801 53.432 78.1918 53.9207C88.2722 54.6544 89.8443 46.7467 89.8443 46.7467H74.6494Z" fill="white"/>
<path d="M75.2934 23.0895C75.2414 23.0171 75.1767 22.9804 75.0996 22.9804H74.4586L74.2303 23.8315H74.8926C74.9769 23.8315 75.063 23.7894 75.1515 23.7068C75.2406 23.6231 75.3006 23.5175 75.3313 23.3874C75.3585 23.2622 75.3462 23.1624 75.2934 23.0895ZM76.2368 23.9215C76.1657 24.0746 76.072 24.2071 75.9565 24.3206C75.8415 24.4331 75.7023 24.5221 75.5396 24.5891C75.3769 24.6552 75.1899 24.6884 74.9799 24.6884H73.9969L73.6088 26.125H72.5312L73.6161 22.0985H75.3087C75.5085 22.0985 75.6822 22.1357 75.8309 22.2106C75.9795 22.2854 76.1009 22.3842 76.1946 22.5089C76.2883 22.6336 76.3522 22.776 76.3859 22.9344C76.4187 23.0939 76.4204 23.2597 76.3897 23.4334C76.359 23.6065 76.3084 23.7684 76.2368 23.9215Z" fill="white"/>
<path d="M79.2224 23.294L78.4881 24.6518H79.2135L79.2224 23.294ZM79.2118 26.125L79.2126 25.4921H78.04L77.698 26.125H76.4258L78.8037 22.0985H80.139L80.3473 26.125H79.2118Z" fill="white"/>
<path d="M84.6788 23.5334C84.6499 23.3603 84.5851 23.2219 84.4842 23.1201C84.3832 23.0174 84.2439 22.966 84.0646 22.966C83.9386 22.966 83.8163 22.9944 83.6988 23.0502C83.5804 23.1069 83.4743 23.1847 83.381 23.2859C83.2873 23.3862 83.2064 23.5085 83.1378 23.6508C83.0684 23.7936 83.0207 23.9497 82.9939 24.1189C82.9359 24.4613 82.9606 24.7376 83.0671 24.9489C83.174 25.1602 83.3572 25.2659 83.6166 25.2659C83.795 25.2659 83.9577 25.214 84.1038 25.1084C84.2503 25.0042 84.3721 24.8634 84.4701 24.6863L85.2947 25.1754C85.2027 25.3241 85.0966 25.4645 84.9761 25.5951C84.856 25.7257 84.7214 25.8391 84.5719 25.9365C84.4224 26.0328 84.258 26.1091 84.0787 26.1654C83.8989 26.2221 83.706 26.25 83.4994 26.25C83.2256 26.25 82.9794 26.1962 82.7596 26.0896C82.5398 25.983 82.3588 25.8357 82.2153 25.6464C82.0722 25.4572 81.9725 25.2321 81.9167 24.9734C81.8613 24.7137 81.8609 24.429 81.9167 24.1189C81.9716 23.8093 82.0696 23.5232 82.2102 23.2615C82.3507 23.0003 82.5215 22.7748 82.7217 22.586C82.9219 22.3967 83.1472 22.2485 83.3972 22.1419C83.6468 22.0352 83.9083 21.9824 84.1818 21.9824C84.3883 21.9824 84.574 22.0098 84.7376 22.0661C84.9016 22.1233 85.0438 22.1991 85.1644 22.2959C85.2849 22.3928 85.3863 22.5053 85.4676 22.6339C85.549 22.7626 85.6103 22.901 85.6512 23.0502L84.6788 23.5334Z" fill="white"/>
<path d="M88.8856 24.0428L89.6731 26.125H88.4793L88.0648 24.6699L87.6943 25.0504L87.4179 26.125H86.3398L87.4247 22.0985H88.5023L88.1551 23.4872L89.306 22.1044H90.7043L88.8856 24.0428Z" fill="white"/>
<path d="M91.7885 26.125H90.7109L91.7958 22.0985H92.8734L91.7885 26.125Z" fill="white"/>
<path d="M96.763 26.125H95.7378L95.1006 23.789L94.4655 26.125H93.3828L94.4728 22.0985H95.5661L96.1598 24.3079L96.7702 22.0985H97.8478L96.763 26.125Z" fill="white"/>
<path d="M102.06 25.4415C101.837 25.6909 101.583 25.8881 101.3 26.0328C101.015 26.1776 100.708 26.25 100.379 26.25C100.108 26.25 99.8639 26.1977 99.6446 26.093C99.4244 25.9883 99.2429 25.8426 99.099 25.6552C98.9554 25.4689 98.8545 25.2439 98.7957 24.9827C98.7365 24.7205 98.7348 24.4334 98.7906 24.1194C98.8464 23.8049 98.9448 23.5163 99.0875 23.2531C99.2306 22.9895 99.4027 22.764 99.605 22.5767C99.806 22.3898 100.031 22.2436 100.279 22.1394C100.528 22.0343 100.786 21.9824 101.056 21.9824C101.259 21.9824 101.444 22.0103 101.609 22.0665C101.775 22.1233 101.919 22.1991 102.042 22.2959C102.164 22.3933 102.266 22.5058 102.35 22.6344C102.432 22.763 102.494 22.9015 102.536 23.0502L101.564 23.5339C101.537 23.3808 101.475 23.2483 101.378 23.1353C101.281 23.0228 101.137 22.966 100.944 22.966C100.815 22.966 100.692 22.9944 100.575 23.0502C100.459 23.1069 100.353 23.1851 100.257 23.2864C100.163 23.3867 100.081 23.5085 100.014 23.6513C99.947 23.7941 99.9001 23.9496 99.8733 24.1194C99.8158 24.4618 99.8392 24.7381 99.9444 24.9489C100.049 25.1607 100.231 25.2659 100.491 25.2659C100.599 25.2659 100.708 25.2458 100.816 25.2057C100.924 25.1656 101.016 25.1133 101.091 25.0492L101.172 24.7352H100.552L100.786 23.8655H102.484L102.06 25.4415Z" fill="white"/>
</svg>
