<svg width="0" height="0" class="hidden">
    <symbol fill="none" xmlns="http://www.w3.org/2000/svg" viewBox="0 0 14 19" id="location">
        <path fill-rule="evenodd" clip-rule="evenodd"
            d="M6.99844 2.28868C4.11646 2.28868 1.88716 4.43944 1.88716 6.9911C1.88716 9.27603 3.23463 11.9295 4.68852 14.0984C5.40276 15.1639 6.11836 16.0774 6.6557 16.7245C6.77883 16.8728 6.89242 17.0069 6.99427 17.1255C7.09752 17.0037 7.21293 16.8656 7.33819 16.7128C7.87606 16.0567 8.5923 15.1324 9.30716 14.0593C10.7638 11.8728 12.1097 9.22051 12.1097 6.9911C12.1097 4.43944 9.88041 2.28868 6.99844 2.28868ZM7.54394 18.7585C7.40386 18.9097 7.20754 18.996 7.00167 18.9969C6.79579 18.9978 6.59874 18.9132 6.45735 18.7632C6.97006 18.2778 7.02703 18.2776 7.54394 18.7585ZM0.398438 6.9911C0.398438 3.51328 3.40017 0.796875 6.99844 0.796875C10.5967 0.796875 13.5984 3.51328 13.5984 6.9911C13.5984 9.70151 12.0166 12.6791 10.5453 14.8876C9.7963 16.012 9.04863 16.9765 8.48857 17.6597C8.2082 18.0018 7.97401 18.2743 7.80903 18.4623C7.72652 18.5563 7.66127 18.6293 7.61614 18.6793C7.59358 18.7042 7.57604 18.7235 7.56389 18.7368L7.54974 18.7522L7.54578 18.7565L7.54394 18.7585C7.02703 18.2776 6.97006 18.2778 6.45735 18.7632L6.45547 18.7612L6.45147 18.7569L6.43724 18.7417C6.42504 18.7286 6.40744 18.7096 6.38482 18.6849C6.33959 18.6357 6.27421 18.5638 6.19159 18.471C6.02638 18.2856 5.79192 18.0167 5.51129 17.6787C4.95069 17.0035 4.20239 16.0486 3.45272 14.9302C1.97879 12.7314 0.398438 9.75496 0.398438 6.9911Z"
            fill="black" fill-opacity="0.24"></path>
        <path fill-rule="evenodd" clip-rule="evenodd"
            d="M4.87721 5.67556C5.43982 5.11295 6.20289 4.79688 6.99854 4.79688C7.79418 4.79688 8.55725 5.11295 9.11986 5.67556C9.68247 6.23816 9.99854 7.00123 9.99854 7.79688C9.99854 8.59252 9.68247 9.35559 9.11986 9.9182C8.55725 10.4808 7.79418 10.7969 6.99854 10.7969C6.20289 10.7969 5.43982 10.4808 4.87721 9.9182C4.3146 9.35559 3.99854 8.59252 3.99854 7.79688C3.99854 7.00123 4.31461 6.23816 4.87721 5.67556ZM6.99854 6.24382C6.58664 6.24382 6.19161 6.40745 5.90036 6.6987C5.60911 6.98995 5.44548 7.38498 5.44548 7.79688C5.44548 8.20877 5.60911 8.6038 5.90036 8.89505C6.19161 9.18631 6.58664 9.34993 6.99854 9.34993C7.41043 9.34993 7.80546 9.18631 8.09671 8.89505C8.38796 8.6038 8.55159 8.20877 8.55159 7.79688C8.55159 7.38498 8.38796 6.98995 8.09671 6.6987C7.80546 6.40745 7.41043 6.24382 6.99854 6.24382Z"
            fill="black" fill-opacity="0.24"></path>
    </symbol>
    <symbol fill="none" xmlns="http://www.w3.org/2000/svg" viewBox="0 0 24 24" id="phone">
        <path
            d="M13.7781 13.2739L13.5503 13.5136C13.5503 13.5136 13.009 14.0835 11.5315 12.5279C10.0541 10.9724 10.5953 10.4025 10.5953 10.4025L10.7387 10.2516C11.092 9.87963 11.1253 9.28248 10.8171 8.84655L10.1866 7.95481C9.80514 7.41525 9.06798 7.34397 8.63072 7.80432L7.84592 8.63057C7.62911 8.85883 7.48382 9.15473 7.50144 9.48297C7.54652 10.3227 7.90535 12.1296 9.90768 14.2376C12.031 16.4731 14.0234 16.562 14.8381 16.4815C15.0958 16.4561 15.3199 16.3172 15.5005 16.127L16.2108 15.3793C16.6903 14.8745 16.5551 14.0091 15.9416 13.656L14.9864 13.1062C14.5836 12.8743 14.0929 12.9424 13.7781 13.2739Z"
            fill="#21C286"></path>
        <path fill-rule="evenodd" clip-rule="evenodd"
            d="M12 19.3125C16.0386 19.3125 19.3125 16.0386 19.3125 12C19.3125 7.96142 16.0386 4.6875 12 4.6875C7.96142 4.6875 4.6875 7.96142 4.6875 12C4.6875 16.0386 7.96142 19.3125 12 19.3125ZM12 21C16.9706 21 21 16.9706 21 12C21 7.02944 16.9706 3 12 3C7.02944 3 3 7.02944 3 12C3 16.9706 7.02944 21 12 21Z"
            fill="#21C286"></path>
    </symbol>
    <symbol fill="none" xmlns="http://www.w3.org/2000/svg" viewBox="0 0 16 16" id="time">
        <path fill-rule="evenodd" clip-rule="evenodd"
            d="M8 14.5C11.5899 14.5 14.5 11.5899 14.5 8C14.5 4.41015 11.5899 1.5 8 1.5C4.41015 1.5 1.5 4.41015 1.5 8C1.5 11.5899 4.41015 14.5 8 14.5ZM8 16C12.4183 16 16 12.4183 16 8C16 3.58172 12.4183 0 8 0C3.58172 0 0 3.58172 0 8C0 12.4183 3.58172 16 8 16Z"
            fill="#21C286"></path>
        <path
            d="M7 9H10.25C10.6642 9 11 8.66421 11 8.25C11 7.83579 10.6642 7.5 10.25 7.5H8.5V5.75C8.5 5.33579 8.16421 5 7.75 5C7.33579 5 7 5.33579 7 5.75V9Z"
            fill="#21C286"></path>
    </symbol>

    <symbol fill="none" xmlns="http://www.w3.org/2000/svg" viewBox="0 0 13 12" id="phoneMobile">
        <path
            d="M8.77404 7.97885L8.46785 8.27184C8.46785 8.27184 7.7401 8.9684 5.75368 7.06714C3.76728 5.16595 4.49502 4.46943 4.49502 4.46943L4.68781 4.28489C5.1628 3.83031 5.20757 3.10047 4.79315 2.56766L3.94552 1.47775C3.43262 0.818291 2.44155 0.731178 1.85369 1.29382L0.798571 2.30368C0.507083 2.58267 0.311749 2.94432 0.335438 3.34551C0.396038 4.37188 0.878472 6.58022 3.57048 9.15676C6.42523 11.889 9.10383 11.9976 10.1992 11.8993C10.5457 11.8683 10.847 11.6984 11.0898 11.466L12.0447 10.5521C12.6893 9.9351 12.5076 8.87742 11.6828 8.44589L10.3985 7.77386C9.85699 7.49051 9.19727 7.57372 8.77404 7.97885Z"
            fill="#2C2C2C"></path>
    </symbol>
    <symbol viewBox="0 0 13 12" fill="none" xmlns="http://www.w3.org/2000/svg" id="phoneMobileIndert">
        <path
            d="M8.44055 7.71322L8.13435 8.00621C8.13435 8.00621 7.4066 8.70277 5.42019 6.80151C3.43379 4.90033 4.16152 4.2038 4.16152 4.2038L4.35431 4.01927C4.82931 3.56468 4.87408 2.83484 4.45965 2.30203L3.61202 1.21212C3.09913 0.552666 2.10806 0.465553 1.52019 1.0282L0.465075 2.03806C0.173587 2.31705 -0.0217476 2.67869 0.00194151 3.07988C0.0625423 4.10626 0.544976 6.3146 3.23699 8.89113C6.09174 11.6234 8.77034 11.732 9.86572 11.6337C10.2122 11.6026 10.5135 11.4328 10.7563 11.2004L11.7112 10.2865C12.3558 9.66948 12.1741 8.61179 11.3493 8.18027L10.065 7.50823C9.5235 7.22488 8.86378 7.3081 8.44055 7.71322Z"
            fill="white" />
    </symbol>





    <symbol fill="none" xmlns="http://www.w3.org/2000/svg" viewBox="0 0 15 15" id="emailMobile">
        <path
            d="M7.67686 14.0281C6.57028 14.0281 5.58665 13.877 4.72598 13.5749C3.86882 13.2763 3.14515 12.8354 2.55497 12.2523C1.9648 11.6726 1.5169 10.9648 1.21127 10.1287C0.905639 9.29264 0.751069 8.33714 0.747559 7.26214C0.751069 6.21174 0.907399 5.26504 1.21654 4.42194C1.52568 3.5753 1.97709 2.85164 2.57078 2.25092C3.16447 1.64669 3.8899 1.18298 4.74706 0.85979C5.60422 0.5366 6.57906 0.375 7.67156 0.375C8.70086 0.375 9.61246 0.53133 10.4065 0.84398C11.2039 1.15664 11.8766 1.59224 12.4247 2.1508C12.9762 2.70585 13.3925 3.35574 13.6735 4.10044C13.9581 4.84174 14.1003 5.64614 14.1003 6.51384C14.1003 7.11464 14.0547 7.68374 13.9633 8.22114C13.872 8.75514 13.7157 9.22944 13.4943 9.64394C13.2765 10.0584 12.9797 10.3886 12.6038 10.6345C12.2279 10.8769 11.7572 11.0087 11.1916 11.0297C10.8368 11.0473 10.5259 11.0139 10.2589 10.9296C9.99186 10.8453 9.77586 10.7136 9.61076 10.5344C9.44916 10.3517 9.34726 10.1287 9.30516 9.86524H9.24186C9.16106 10.076 9.00826 10.2692 8.78346 10.4448C8.56216 10.617 8.28816 10.7522 7.96136 10.8506C7.63466 10.9454 7.27111 10.9841 6.87064 10.9665C6.44206 10.9454 6.04509 10.8471 5.67975 10.6714C5.31791 10.4923 5.00175 10.2428 4.73125 9.92324C4.46426 9.60004 4.257 9.21004 4.10946 8.75344C3.96191 8.29674 3.88814 7.77854 3.88814 7.19894C3.88814 6.63334 3.96894 6.13444 4.13053 5.70244C4.29213 5.27034 4.50818 4.90144 4.77867 4.59584C5.05268 4.29014 5.36182 4.05134 5.70609 3.87917C6.05036 3.70353 6.40517 3.59111 6.77052 3.54193C7.14992 3.48924 7.50646 3.49451 7.84026 3.55774C8.17396 3.62097 8.45146 3.71758 8.67276 3.84756C8.89756 3.97754 9.03816 4.11984 9.09436 4.27434H9.16806V3.6842H10.6383V8.70074C10.6418 8.96414 10.7051 9.17674 10.828 9.33834C10.9545 9.49994 11.1301 9.58074 11.355 9.58074C11.636 9.58074 11.8626 9.47004 12.0347 9.24874C12.2104 9.02394 12.3368 8.67964 12.4141 8.21594C12.4949 7.74864 12.5336 7.15144 12.53 6.42434C12.5336 5.82714 12.4545 5.28614 12.2929 4.80134C12.1348 4.31304 11.91 3.88444 11.6184 3.51558C11.3269 3.14672 10.9773 2.83934 10.5698 2.59343C10.1658 2.34401 9.71616 2.15607 9.22076 2.0296C8.72546 1.90314 8.19676 1.8399 7.63466 1.8399C6.77403 1.8399 6.01699 1.97164 5.36358 2.23511C4.71017 2.49507 4.16215 2.86569 3.71952 3.34696C3.2804 3.82824 2.94843 4.39914 2.7236 5.05954C2.50228 5.71644 2.39162 6.44364 2.39162 7.24104C2.39162 8.09474 2.50755 8.85174 2.7394 9.51224C2.97477 10.1691 3.31904 10.7224 3.77221 11.172C4.22538 11.6217 4.7857 11.9624 5.45316 12.1943C6.12413 12.4261 6.89523 12.5421 7.76646 12.5421C8.16696 12.5421 8.55856 12.5105 8.94156 12.4472C9.32446 12.384 9.66866 12.3102 9.97436 12.2259C10.28 12.1416 10.5154 12.0678 10.6805 12.0046L11.1284 13.343C10.9106 13.4554 10.6155 13.5643 10.2431 13.6697C9.87426 13.7751 9.46666 13.8612 9.02056 13.9279C8.57796 13.9947 8.13006 14.0281 7.67686 14.0281ZM7.308 9.45424C7.75416 9.45424 8.11066 9.36814 8.37766 9.19604C8.64466 9.02034 8.83616 8.76044 8.95206 8.41614C9.06796 8.07184 9.12416 7.64334 9.12066 7.13044C9.12066 6.65264 9.06096 6.26094 8.94156 5.95534C8.82206 5.64974 8.63066 5.42314 8.36716 5.27554C8.10366 5.12804 7.75416 5.05424 7.31854 5.05424C6.92509 5.05424 6.5896 5.14384 6.31208 5.32304C6.03807 5.50214 5.82729 5.74984 5.67975 6.06594C5.53571 6.37864 5.4637 6.73524 5.4637 7.13564C5.4637 7.53614 5.52166 7.91384 5.63759 8.26864C5.75703 8.61994 5.95024 8.90624 6.21723 9.12754C6.48772 9.34534 6.85132 9.45424 7.308 9.45424Z"
            fill="#2C2C2C"></path>
    </symbol>
    <symbol viewBox="0 0 14 14" fill="none" xmlns="http://www.w3.org/2000/svg" id="emailMobileInvert">
        <path
            d="M6.9293 13.6531C5.82272 13.6531 4.83909 13.502 3.97842 13.1999C3.12126 12.9013 2.39759 12.4604 1.80741 11.8773C1.21724 11.2976 0.76934 10.5898 0.46371 9.75374C0.15808 8.91764 0.00351 7.96214 0 6.88714C0.00351 5.83674 0.15984 4.89004 0.46898 4.04694C0.77812 3.2003 1.22953 2.47664 1.82322 1.87592C2.41691 1.27169 3.14234 0.80798 3.9995 0.48479C4.85666 0.1616 5.8315 0 6.924 0C7.9533 0 8.8649 0.15633 9.6589 0.46898C10.4563 0.78164 11.129 1.21724 11.6771 1.7758C12.2286 2.33085 12.6449 2.98074 12.9259 3.72544C13.2105 4.46674 13.3527 5.27114 13.3527 6.13884C13.3527 6.73964 13.3071 7.30874 13.2157 7.84614C13.1244 8.38014 12.9681 8.85444 12.7467 9.26894C12.5289 9.68344 12.2321 10.0136 11.8562 10.2595C11.4803 10.5019 11.0096 10.6337 10.444 10.6547C10.0892 10.6723 9.7783 10.6389 9.5113 10.5546C9.2443 10.4703 9.0283 10.3386 8.8632 10.1594C8.7016 9.97674 8.5997 9.75374 8.5576 9.49024H8.4943C8.4135 9.70104 8.2607 9.89424 8.0359 10.0698C7.8146 10.242 7.5406 10.3772 7.2138 10.4756C6.8871 10.5704 6.52355 10.6091 6.12308 10.5915C5.6945 10.5704 5.29753 10.4721 4.93219 10.2964C4.57035 10.1173 4.25419 9.86784 3.98369 9.54824C3.7167 9.22504 3.50944 8.83504 3.3619 8.37844C3.21435 7.92174 3.14058 7.40354 3.14058 6.82394C3.14058 6.25834 3.22138 5.75944 3.38297 5.32744C3.54457 4.89534 3.76062 4.52644 4.03111 4.22084C4.30512 3.91514 4.61426 3.67634 4.95853 3.50417C5.3028 3.32853 5.65761 3.21611 6.02296 3.16693C6.40236 3.11424 6.7589 3.11951 7.0927 3.18274C7.4264 3.24597 7.7039 3.34258 7.9252 3.47256C8.15 3.60254 8.2906 3.74484 8.3468 3.89934H8.4205V3.3092H9.8907V8.32574C9.8942 8.58914 9.9575 8.80174 10.0804 8.96334C10.2069 9.12494 10.3825 9.20574 10.6074 9.20574C10.8884 9.20574 11.115 9.09504 11.2871 8.87374C11.4628 8.64894 11.5892 8.30464 11.6665 7.84094C11.7473 7.37364 11.786 6.77644 11.7824 6.04934C11.786 5.45214 11.7069 4.91114 11.5453 4.42634C11.3872 3.93804 11.1624 3.50944 10.8708 3.14058C10.5793 2.77172 10.2297 2.46434 9.8222 2.21843C9.4182 1.96901 8.9686 1.78107 8.4732 1.6546C7.9779 1.52814 7.4492 1.4649 6.8871 1.4649C6.02647 1.4649 5.26943 1.59664 4.61602 1.86011C3.96261 2.12007 3.41459 2.49069 2.97196 2.97196C2.53284 3.45324 2.20087 4.02414 1.97604 4.68454C1.75472 5.34144 1.64406 6.06864 1.64406 6.86604C1.64406 7.71974 1.75999 8.47674 1.99184 9.13724C2.22721 9.79414 2.57148 10.3474 3.02465 10.797C3.47782 11.2467 4.03814 11.5874 4.7056 11.8193C5.37657 12.0511 6.14767 12.1671 7.0189 12.1671C7.4194 12.1671 7.811 12.1355 8.194 12.0722C8.5769 12.009 8.9211 11.9352 9.2268 11.8509C9.5324 11.7666 9.7678 11.6928 9.9329 11.6296L10.3808 12.968C10.163 13.0804 9.8679 13.1893 9.4955 13.2947C9.1267 13.4001 8.7191 13.4862 8.273 13.5529C7.8304 13.6197 7.3825 13.6531 6.9293 13.6531ZM6.56044 9.07924C7.0066 9.07924 7.3631 8.99314 7.6301 8.82104C7.8971 8.64534 8.0886 8.38544 8.2045 8.04114C8.3204 7.69684 8.3766 7.26834 8.3731 6.75544C8.3731 6.27764 8.3134 5.88594 8.194 5.58034C8.0745 5.27474 7.8831 5.04814 7.6196 4.90054C7.3561 4.75304 7.0066 4.67924 6.57098 4.67924C6.17753 4.67924 5.84204 4.76884 5.56452 4.94804C5.29051 5.12714 5.07973 5.37484 4.93219 5.69094C4.78815 6.00364 4.71614 6.36024 4.71614 6.76064C4.71614 7.16114 4.7741 7.53884 4.89003 7.89364C5.00947 8.24494 5.20268 8.53124 5.46967 8.75254C5.74016 8.97034 6.10376 9.07924 6.56044 9.07924Z"
            fill="white" />
    </symbol>


    <symbol viewBox="0 0 24 24" fill="none" xmlns="http://www.w3.org/2000/svg" id="emailWhite">
        <path
            d="M22 6C22 4.9 21.1 4 20 4H4C2.9 4 2 4.9 2 6M22 6V18C22 19.1 21.1 20 20 20H4C2.9 20 2 19.1 2 18V6M22 6L12 13L2 6"
            stroke="white" stroke-width="2" stroke-linecap="round" stroke-linejoin="round" />
    </symbol>


    <symbol viewBox="0 0 24 24" fill="none" xmlns="http://www.w3.org/2000/svg" id="locationWhite">
        <path
            d="M21 10C21 17 12 23 12 23C12 23 3 17 3 10C3 7.61305 3.94821 5.32387 5.63604 3.63604C7.32387 1.94821 9.61305 1 12 1C14.3869 1 16.6761 1.94821 18.364 3.63604C20.0518 5.32387 21 7.61305 21 10Z"
            stroke="white" stroke-width="2" stroke-linecap="round" stroke-linejoin="round" />
        <path
            d="M12 13C13.6569 13 15 11.6569 15 10C15 8.34315 13.6569 7 12 7C10.3431 7 9 8.34315 9 10C9 11.6569 10.3431 13 12 13Z"
            stroke="white" stroke-width="2" stroke-linecap="round" stroke-linejoin="round" />
    </symbol>

    <symbol viewBox="0 0 24 24" fill="none" xmlns="http://www.w3.org/2000/svg" id="phoneWhite">
        <path
            d="M22.0014 16.9201V19.9201C22.0025 20.1986 21.9455 20.4743 21.8339 20.7294C21.7223 20.9846 21.5587 21.2137 21.3535 21.402C21.1483 21.5902 20.906 21.7336 20.6421 21.8228C20.3783 21.912 20.0988 21.9452 19.8214 21.9201C16.7442 21.5857 13.7884 20.5342 11.1914 18.8501C8.77523 17.3148 6.72673 15.2663 5.1914 12.8501C3.50138 10.2413 2.44964 7.27109 2.1214 4.1801C2.09641 3.90356 2.12927 3.62486 2.2179 3.36172C2.30652 3.09859 2.44897 2.85679 2.63616 2.65172C2.82336 2.44665 3.0512 2.28281 3.30519 2.17062C3.55917 2.05843 3.83374 2.00036 4.1114 2.0001H7.1114C7.5967 1.99532 8.06719 2.16718 8.43516 2.48363C8.80313 2.80008 9.04348 3.23954 9.1114 3.7201C9.23802 4.68016 9.47285 5.62282 9.8114 6.5301C9.94594 6.88802 9.97506 7.27701 9.8953 7.65098C9.81555 8.02494 9.63026 8.36821 9.3614 8.6401L8.0914 9.9101C9.51495 12.4136 11.5879 14.4865 14.0914 15.9101L15.3614 14.6401C15.6333 14.3712 15.9766 14.1859 16.3505 14.1062C16.7245 14.0264 17.1135 14.0556 17.4714 14.1901C18.3787 14.5286 19.3213 14.7635 20.2814 14.8901C20.7672 14.9586 21.2108 15.2033 21.5279 15.5776C21.8451 15.9519 22.0136 16.4297 22.0014 16.9201Z"
            stroke="white" stroke-width="2" stroke-linecap="round" stroke-linejoin="round" />
    </symbol>

    <symbol viewBox="0 0 18 18" fill="none" xmlns="http://www.w3.org/2000/svg" id="closeWhite">
        <path d="M16.75 1.25L1.25 16.75M1.25 1.25L16.75 16.75" stroke-width="2.48" stroke-linecap="round"
            stroke-linejoin="round" />
    </symbol>
    <symbol viewBox="0 0 31 22" fill="none" xmlns="http://www.w3.org/2000/svg" id="bar">
        <path d="M2 11H29M2 2H29M2 20H29" stroke="#2C2C2C" stroke-width="3.15" stroke-linecap="round"
            stroke-linejoin="round" />
    </symbol>

</svg>