<svg width="0" height="0" class="hidden">
    <symbol fill="none" xmlns="http://www.w3.org/2000/svg" viewBox="0 0 14 19" id="location">
        <path fill-rule="evenodd" clip-rule="evenodd"
            d="M6.99844 2.28868C4.11646 2.28868 1.88716 4.43944 1.88716 6.9911C1.88716 9.27603 3.23463 11.9295 4.68852 14.0984C5.40276 15.1639 6.11836 16.0774 6.6557 16.7245C6.77883 16.8728 6.89242 17.0069 6.99427 17.1255C7.09752 17.0037 7.21293 16.8656 7.33819 16.7128C7.87606 16.0567 8.5923 15.1324 9.30716 14.0593C10.7638 11.8728 12.1097 9.22051 12.1097 6.9911C12.1097 4.43944 9.88041 2.28868 6.99844 2.28868ZM7.54394 18.7585C7.40386 18.9097 7.20754 18.996 7.00167 18.9969C6.79579 18.9978 6.59874 18.9132 6.45735 18.7632C6.97006 18.2778 7.02703 18.2776 7.54394 18.7585ZM0.398438 6.9911C0.398438 3.51328 3.40017 0.796875 6.99844 0.796875C10.5967 0.796875 13.5984 3.51328 13.5984 6.9911C13.5984 9.70151 12.0166 12.6791 10.5453 14.8876C9.7963 16.012 9.04863 16.9765 8.48857 17.6597C8.2082 18.0018 7.97401 18.2743 7.80903 18.4623C7.72652 18.5563 7.66127 18.6293 7.61614 18.6793C7.59358 18.7042 7.57604 18.7235 7.56389 18.7368L7.54974 18.7522L7.54578 18.7565L7.54394 18.7585C7.02703 18.2776 6.97006 18.2778 6.45735 18.7632L6.45547 18.7612L6.45147 18.7569L6.43724 18.7417C6.42504 18.7286 6.40744 18.7096 6.38482 18.6849C6.33959 18.6357 6.27421 18.5638 6.19159 18.471C6.02638 18.2856 5.79192 18.0167 5.51129 17.6787C4.95069 17.0035 4.20239 16.0486 3.45272 14.9302C1.97879 12.7314 0.398438 9.75496 0.398438 6.9911Z"
            fill="black" fill-opacity="0.24"></path>
        <path fill-rule="evenodd" clip-rule="evenodd"
            d="M4.87721 5.67556C5.43982 5.11295 6.20289 4.79688 6.99854 4.79688C7.79418 4.79688 8.55725 5.11295 9.11986 5.67556C9.68247 6.23816 9.99854 7.00123 9.99854 7.79688C9.99854 8.59252 9.68247 9.35559 9.11986 9.9182C8.55725 10.4808 7.79418 10.7969 6.99854 10.7969C6.20289 10.7969 5.43982 10.4808 4.87721 9.9182C4.3146 9.35559 3.99854 8.59252 3.99854 7.79688C3.99854 7.00123 4.31461 6.23816 4.87721 5.67556ZM6.99854 6.24382C6.58664 6.24382 6.19161 6.40745 5.90036 6.6987C5.60911 6.98995 5.44548 7.38498 5.44548 7.79688C5.44548 8.20877 5.60911 8.6038 5.90036 8.89505C6.19161 9.18631 6.58664 9.34993 6.99854 9.34993C7.41043 9.34993 7.80546 9.18631 8.09671 8.89505C8.38796 8.6038 8.55159 8.20877 8.55159 7.79688C8.55159 7.38498 8.38796 6.98995 8.09671 6.6987C7.80546 6.40745 7.41043 6.24382 6.99854 6.24382Z"
            fill="black" fill-opacity="0.24"></path>
    </symbol>
    <symbol fill="none" xmlns="http://www.w3.org/2000/svg" viewBox="0 0 24 24" id="phone">
        <path
            d="M13.7781 13.2739L13.5503 13.5136C13.5503 13.5136 13.009 14.0835 11.5315 12.5279C10.0541 10.9724 10.5953 10.4025 10.5953 10.4025L10.7387 10.2516C11.092 9.87963 11.1253 9.28248 10.8171 8.84655L10.1866 7.95481C9.80514 7.41525 9.06798 7.34397 8.63072 7.80432L7.84592 8.63057C7.62911 8.85883 7.48382 9.15473 7.50144 9.48297C7.54652 10.3227 7.90535 12.1296 9.90768 14.2376C12.031 16.4731 14.0234 16.562 14.8381 16.4815C15.0958 16.4561 15.3199 16.3172 15.5005 16.127L16.2108 15.3793C16.6903 14.8745 16.5551 14.0091 15.9416 13.656L14.9864 13.1062C14.5836 12.8743 14.0929 12.9424 13.7781 13.2739Z"
            fill="#21C286"></path>
        <path fill-rule="evenodd" clip-rule="evenodd"
            d="M12 19.3125C16.0386 19.3125 19.3125 16.0386 19.3125 12C19.3125 7.96142 16.0386 4.6875 12 4.6875C7.96142 4.6875 4.6875 7.96142 4.6875 12C4.6875 16.0386 7.96142 19.3125 12 19.3125ZM12 21C16.9706 21 21 16.9706 21 12C21 7.02944 16.9706 3 12 3C7.02944 3 3 7.02944 3 12C3 16.9706 7.02944 21 12 21Z"
            fill="#21C286"></path>
    </symbol>
    <symbol fill="none" xmlns="http://www.w3.org/2000/svg" viewBox="0 0 16 16" id="time">
        <path fill-rule="evenodd" clip-rule="evenodd"
            d="M8 14.5C11.5899 14.5 14.5 11.5899 14.5 8C14.5 4.41015 11.5899 1.5 8 1.5C4.41015 1.5 1.5 4.41015 1.5 8C1.5 11.5899 4.41015 14.5 8 14.5ZM8 16C12.4183 16 16 12.4183 16 8C16 3.58172 12.4183 0 8 0C3.58172 0 0 3.58172 0 8C0 12.4183 3.58172 16 8 16Z"
            fill="#21C286"></path>
        <path
            d="M7 9H10.25C10.6642 9 11 8.66421 11 8.25C11 7.83579 10.6642 7.5 10.25 7.5H8.5V5.75C8.5 5.33579 8.16421 5 7.75 5C7.33579 5 7 5.33579 7 5.75V9Z"
            fill="#21C286"></path>
    </symbol>

   <symbol  viewBox="0 0 13 12" fill="none" xmlns="http://www.w3.org/2000/svg" id="phoneMobile">
<path d="M8.77404 7.97885L8.46785 8.27184C8.46785 8.27184 7.7401 8.9684 5.75368 7.06714C3.76728 5.16595 4.49502 4.46943 4.49502 4.46943L4.68781 4.28489C5.1628 3.83031 5.20757 3.10047 4.79315 2.56766L3.94552 1.47775C3.43262 0.818291 2.44155 0.731178 1.85369 1.29382L0.798571 2.30368C0.507083 2.58267 0.311749 2.94432 0.335438 3.34551C0.396038 4.37188 0.878472 6.58022 3.57048 9.15676C6.42523 11.889 9.10383 11.9976 10.1992 11.8993C10.5457 11.8683 10.847 11.6984 11.0898 11.466L12.0447 10.5521C12.6893 9.9351 12.5076 8.87742 11.6828 8.44589L10.3985 7.77386C9.85699 7.49051 9.19727 7.57372 8.77404 7.97885Z" fill="#2C2C2C"/>
</symbol>
<symbol viewBox="0 0 13 12" fill="none" xmlns="http://www.w3.org/2000/svg" id="phoneMobile1">
<path d="M8.44055 7.71322L8.13435 8.00621C8.13435 8.00621 7.4066 8.70277 5.42019 6.80151C3.43379 4.90032 4.16152 4.2038 4.16152 4.2038L4.35431 4.01927C4.82931 3.56468 4.87408 2.83484 4.45965 2.30203L3.61202 1.21212C3.09913 0.552666 2.10806 0.465553 1.52019 1.0282L0.465075 2.03806C0.173587 2.31705 -0.0217476 2.67869 0.00194151 3.07988C0.0625423 4.10626 0.544975 6.3146 3.23699 8.89113C6.09174 11.6234 8.77034 11.732 9.86572 11.6337C10.2122 11.6026 10.5135 11.4328 10.7563 11.2004L11.7112 10.2865C12.3558 9.66948 12.1741 8.61179 11.3493 8.18027L10.065 7.50823C9.5235 7.22488 8.86378 7.3081 8.44055 7.71322Z" fill="white"/>
</symbol>

    <symbol viewBox="0 0 13 12" fill="none" xmlns="http://www.w3.org/2000/svg" id="phoneMobileIndert">
        <path
            d="M8.44055 7.71322L8.13435 8.00621C8.13435 8.00621 7.4066 8.70277 5.42019 6.80151C3.43379 4.90033 4.16152 4.2038 4.16152 4.2038L4.35431 4.01927C4.82931 3.56468 4.87408 2.83484 4.45965 2.30203L3.61202 1.21212C3.09913 0.552666 2.10806 0.465553 1.52019 1.0282L0.465075 2.03806C0.173587 2.31705 -0.0217476 2.67869 0.00194151 3.07988C0.0625423 4.10626 0.544976 6.3146 3.23699 8.89113C6.09174 11.6234 8.77034 11.732 9.86572 11.6337C10.2122 11.6026 10.5135 11.4328 10.7563 11.2004L11.7112 10.2865C12.3558 9.66948 12.1741 8.61179 11.3493 8.18027L10.065 7.50823C9.5235 7.22488 8.86378 7.3081 8.44055 7.71322Z"
            fill="white" />
    </symbol>

    <svg viewBox="0 0 15 15" fill="none" xmlns="http://www.w3.org/2000/svg" id="emailMobile">
        <path
            d="M7.67686 14.0281C6.57028 14.0281 5.58665 13.877 4.72598 13.5749C3.86882 13.2763 3.14515 12.8354 2.55497 12.2523C1.9648 11.6726 1.5169 10.9648 1.21127 10.1287C0.905639 9.29264 0.751069 8.33714 0.747559 7.26214C0.751069 6.21174 0.907399 5.26504 1.21654 4.42194C1.52568 3.5753 1.97709 2.85164 2.57078 2.25092C3.16447 1.64669 3.8899 1.18298 4.74706 0.85979C5.60422 0.5366 6.57906 0.375 7.67156 0.375C8.70086 0.375 9.61246 0.53133 10.4065 0.84398C11.2039 1.15664 11.8766 1.59224 12.4247 2.1508C12.9762 2.70585 13.3925 3.35574 13.6735 4.10044C13.9581 4.84174 14.1003 5.64614 14.1003 6.51384C14.1003 7.11464 14.0547 7.68374 13.9633 8.22114C13.872 8.75514 13.7157 9.22944 13.4943 9.64394C13.2765 10.0584 12.9797 10.3886 12.6038 10.6345C12.2279 10.8769 11.7572 11.0087 11.1916 11.0297C10.8368 11.0473 10.5259 11.0139 10.2589 10.9296C9.99186 10.8453 9.77586 10.7136 9.61076 10.5344C9.44916 10.3517 9.34726 10.1287 9.30516 9.86524H9.24186C9.16106 10.076 9.00826 10.2692 8.78346 10.4448C8.56216 10.617 8.28816 10.7522 7.96136 10.8506C7.63466 10.9454 7.27111 10.9841 6.87064 10.9665C6.44206 10.9454 6.04509 10.8471 5.67975 10.6714C5.31791 10.4923 5.00175 10.2428 4.73125 9.92324C4.46426 9.60004 4.257 9.21004 4.10946 8.75344C3.96191 8.29674 3.88814 7.77854 3.88814 7.19894C3.88814 6.63334 3.96894 6.13444 4.13053 5.70244C4.29213 5.27034 4.50818 4.90144 4.77867 4.59584C5.05268 4.29014 5.36182 4.05134 5.70609 3.87917C6.05036 3.70353 6.40517 3.59111 6.77052 3.54193C7.14992 3.48924 7.50646 3.49451 7.84026 3.55774C8.17396 3.62097 8.45146 3.71758 8.67276 3.84756C8.89756 3.97754 9.03816 4.11984 9.09436 4.27434H9.16806V3.6842H10.6383V8.70074C10.6418 8.96414 10.7051 9.17674 10.828 9.33834C10.9545 9.49994 11.1301 9.58074 11.355 9.58074C11.636 9.58074 11.8626 9.47004 12.0347 9.24874C12.2104 9.02394 12.3368 8.67964 12.4141 8.21594C12.4949 7.74864 12.5336 7.15144 12.53 6.42434C12.5336 5.82714 12.4545 5.28614 12.2929 4.80134C12.1348 4.31304 11.91 3.88444 11.6184 3.51558C11.3269 3.14672 10.9773 2.83934 10.5698 2.59343C10.1658 2.34401 9.71616 2.15607 9.22076 2.0296C8.72546 1.90314 8.19676 1.8399 7.63466 1.8399C6.77403 1.8399 6.01699 1.97164 5.36358 2.23511C4.71017 2.49507 4.16215 2.86569 3.71952 3.34696C3.2804 3.82824 2.94843 4.39914 2.7236 5.05954C2.50228 5.71644 2.39162 6.44364 2.39162 7.24104C2.39162 8.09474 2.50755 8.85174 2.7394 9.51224C2.97477 10.1691 3.31904 10.7224 3.77221 11.172C4.22538 11.6217 4.7857 11.9624 5.45316 12.1943C6.12413 12.4261 6.89523 12.5421 7.76646 12.5421C8.16696 12.5421 8.55856 12.5105 8.94156 12.4472C9.32446 12.384 9.66866 12.3102 9.97436 12.2259C10.28 12.1416 10.5154 12.0678 10.6805 12.0046L11.1284 13.343C10.9106 13.4554 10.6155 13.5643 10.2431 13.6697C9.87426 13.7751 9.46666 13.8612 9.02056 13.9279C8.57796 13.9947 8.13006 14.0281 7.67686 14.0281ZM7.308 9.45424C7.75416 9.45424 8.11066 9.36814 8.37766 9.19604C8.64466 9.02034 8.83616 8.76044 8.95206 8.41614C9.06796 8.07184 9.12416 7.64334 9.12066 7.13044C9.12066 6.65264 9.06096 6.26094 8.94156 5.95534C8.82206 5.64974 8.63066 5.42314 8.36716 5.27554C8.10366 5.12804 7.75416 5.05424 7.31854 5.05424C6.92509 5.05424 6.5896 5.14384 6.31208 5.32304C6.03807 5.50214 5.82729 5.74984 5.67975 6.06594C5.53571 6.37864 5.4637 6.73524 5.4637 7.13564C5.4637 7.53614 5.52166 7.91384 5.63759 8.26864C5.75703 8.61994 5.95024 8.90624 6.21723 9.12754C6.48772 9.34534 6.85132 9.45424 7.308 9.45424Z"
            fill="#2C2C2C" />
    </svg>
    <symbol viewBox="0 0 14 14" fill="none" xmlns="http://www.w3.org/2000/svg" id="emailMobileInvert">
        <path
            d="M6.9293 13.6531C5.82272 13.6531 4.83909 13.502 3.97842 13.1999C3.12126 12.9013 2.39759 12.4604 1.80741 11.8773C1.21724 11.2976 0.76934 10.5898 0.46371 9.75374C0.15808 8.91764 0.00351 7.96214 0 6.88714C0.00351 5.83674 0.15984 4.89004 0.46898 4.04694C0.77812 3.2003 1.22953 2.47664 1.82322 1.87592C2.41691 1.27169 3.14234 0.80798 3.9995 0.48479C4.85666 0.1616 5.8315 0 6.924 0C7.9533 0 8.8649 0.15633 9.6589 0.46898C10.4563 0.78164 11.129 1.21724 11.6771 1.7758C12.2286 2.33085 12.6449 2.98074 12.9259 3.72544C13.2105 4.46674 13.3527 5.27114 13.3527 6.13884C13.3527 6.73964 13.3071 7.30874 13.2157 7.84614C13.1244 8.38014 12.9681 8.85444 12.7467 9.26894C12.5289 9.68344 12.2321 10.0136 11.8562 10.2595C11.4803 10.5019 11.0096 10.6337 10.444 10.6547C10.0892 10.6723 9.7783 10.6389 9.5113 10.5546C9.2443 10.4703 9.0283 10.3386 8.8632 10.1594C8.7016 9.97674 8.5997 9.75374 8.5576 9.49024H8.4943C8.4135 9.70104 8.2607 9.89424 8.0359 10.0698C7.8146 10.242 7.5406 10.3772 7.2138 10.4756C6.8871 10.5704 6.52355 10.6091 6.12308 10.5915C5.6945 10.5704 5.29753 10.4721 4.93219 10.2964C4.57035 10.1173 4.25419 9.86784 3.98369 9.54824C3.7167 9.22504 3.50944 8.83504 3.3619 8.37844C3.21435 7.92174 3.14058 7.40354 3.14058 6.82394C3.14058 6.25834 3.22138 5.75944 3.38297 5.32744C3.54457 4.89534 3.76062 4.52644 4.03111 4.22084C4.30512 3.91514 4.61426 3.67634 4.95853 3.50417C5.3028 3.32853 5.65761 3.21611 6.02296 3.16693C6.40236 3.11424 6.7589 3.11951 7.0927 3.18274C7.4264 3.24597 7.7039 3.34258 7.9252 3.47256C8.15 3.60254 8.2906 3.74484 8.3468 3.89934H8.4205V3.3092H9.8907V8.32574C9.8942 8.58914 9.9575 8.80174 10.0804 8.96334C10.2069 9.12494 10.3825 9.20574 10.6074 9.20574C10.8884 9.20574 11.115 9.09504 11.2871 8.87374C11.4628 8.64894 11.5892 8.30464 11.6665 7.84094C11.7473 7.37364 11.786 6.77644 11.7824 6.04934C11.786 5.45214 11.7069 4.91114 11.5453 4.42634C11.3872 3.93804 11.1624 3.50944 10.8708 3.14058C10.5793 2.77172 10.2297 2.46434 9.8222 2.21843C9.4182 1.96901 8.9686 1.78107 8.4732 1.6546C7.9779 1.52814 7.4492 1.4649 6.8871 1.4649C6.02647 1.4649 5.26943 1.59664 4.61602 1.86011C3.96261 2.12007 3.41459 2.49069 2.97196 2.97196C2.53284 3.45324 2.20087 4.02414 1.97604 4.68454C1.75472 5.34144 1.64406 6.06864 1.64406 6.86604C1.64406 7.71974 1.75999 8.47674 1.99184 9.13724C2.22721 9.79414 2.57148 10.3474 3.02465 10.797C3.47782 11.2467 4.03814 11.5874 4.7056 11.8193C5.37657 12.0511 6.14767 12.1671 7.0189 12.1671C7.4194 12.1671 7.811 12.1355 8.194 12.0722C8.5769 12.009 8.9211 11.9352 9.2268 11.8509C9.5324 11.7666 9.7678 11.6928 9.9329 11.6296L10.3808 12.968C10.163 13.0804 9.8679 13.1893 9.4955 13.2947C9.1267 13.4001 8.7191 13.4862 8.273 13.5529C7.8304 13.6197 7.3825 13.6531 6.9293 13.6531ZM6.56044 9.07924C7.0066 9.07924 7.3631 8.99314 7.6301 8.82104C7.8971 8.64534 8.0886 8.38544 8.2045 8.04114C8.3204 7.69684 8.3766 7.26834 8.3731 6.75544C8.3731 6.27764 8.3134 5.88594 8.194 5.58034C8.0745 5.27474 7.8831 5.04814 7.6196 4.90054C7.3561 4.75304 7.0066 4.67924 6.57098 4.67924C6.17753 4.67924 5.84204 4.76884 5.56452 4.94804C5.29051 5.12714 5.07973 5.37484 4.93219 5.69094C4.78815 6.00364 4.71614 6.36024 4.71614 6.76064C4.71614 7.16114 4.7741 7.53884 4.89003 7.89364C5.00947 8.24494 5.20268 8.53124 5.46967 8.75254C5.74016 8.97034 6.10376 9.07924 6.56044 9.07924Z"
            fill="white" />
    </symbol>


    <symbol viewBox="0 0 24 24" fill="none" xmlns="http://www.w3.org/2000/svg" id="emailWhite">
        <path
            d="M22 6C22 4.9 21.1 4 20 4H4C2.9 4 2 4.9 2 6M22 6V18C22 19.1 21.1 20 20 20H4C2.9 20 2 19.1 2 18V6M22 6L12 13L2 6"
            stroke="white" stroke-width="2" stroke-linecap="round" stroke-linejoin="round" />
    </symbol>


    <symbol viewBox="0 0 24 24" fill="none" xmlns="http://www.w3.org/2000/svg" id="locationWhite">
        <path
            d="M21 10C21 17 12 23 12 23C12 23 3 17 3 10C3 7.61305 3.94821 5.32387 5.63604 3.63604C7.32387 1.94821 9.61305 1 12 1C14.3869 1 16.6761 1.94821 18.364 3.63604C20.0518 5.32387 21 7.61305 21 10Z"
            stroke="white" stroke-width="2" stroke-linecap="round" stroke-linejoin="round" />
        <path
            d="M12 13C13.6569 13 15 11.6569 15 10C15 8.34315 13.6569 7 12 7C10.3431 7 9 8.34315 9 10C9 11.6569 10.3431 13 12 13Z"
            stroke="white" stroke-width="2" stroke-linecap="round" stroke-linejoin="round" />
    </symbol>

    <symbol viewBox="0 0 24 24" fill="none" xmlns="http://www.w3.org/2000/svg" id="phoneWhite">
        <path
            d="M22.0014 16.9201V19.9201C22.0025 20.1986 21.9455 20.4743 21.8339 20.7294C21.7223 20.9846 21.5587 21.2137 21.3535 21.402C21.1483 21.5902 20.906 21.7336 20.6421 21.8228C20.3783 21.912 20.0988 21.9452 19.8214 21.9201C16.7442 21.5857 13.7884 20.5342 11.1914 18.8501C8.77523 17.3148 6.72673 15.2663 5.1914 12.8501C3.50138 10.2413 2.44964 7.27109 2.1214 4.1801C2.09641 3.90356 2.12927 3.62486 2.2179 3.36172C2.30652 3.09859 2.44897 2.85679 2.63616 2.65172C2.82336 2.44665 3.0512 2.28281 3.30519 2.17062C3.55917 2.05843 3.83374 2.00036 4.1114 2.0001H7.1114C7.5967 1.99532 8.06719 2.16718 8.43516 2.48363C8.80313 2.80008 9.04348 3.23954 9.1114 3.7201C9.23802 4.68016 9.47285 5.62282 9.8114 6.5301C9.94594 6.88802 9.97506 7.27701 9.8953 7.65098C9.81555 8.02494 9.63026 8.36821 9.3614 8.6401L8.0914 9.9101C9.51495 12.4136 11.5879 14.4865 14.0914 15.9101L15.3614 14.6401C15.6333 14.3712 15.9766 14.1859 16.3505 14.1062C16.7245 14.0264 17.1135 14.0556 17.4714 14.1901C18.3787 14.5286 19.3213 14.7635 20.2814 14.8901C20.7672 14.9586 21.2108 15.2033 21.5279 15.5776C21.8451 15.9519 22.0136 16.4297 22.0014 16.9201Z"
            stroke="white" stroke-width="2" stroke-linecap="round" stroke-linejoin="round" />
    </symbol>

    <symbol fill="none" xmlns="http://www.w3.org/2000/svg" viewBox="0 0 32 32" id="closeWhite">
        <path d="M23.75 8.25L8.25 23.75M8.25 8.25L23.75 23.75" stroke="white" stroke-width="2.48" stroke-linecap="round"
            stroke-linejoin="round"></path>
    </symbol>



    <symbol viewBox="0 0 31 22" fill="none" xmlns="http://www.w3.org/2000/svg" id="bar">
        <path d="M2 11H29M2 2H29M2 20H29" stroke="#2C2C2C" stroke-width="3.15" stroke-linecap="round"
            stroke-linejoin="round" />
    </symbol>

    <symbol fill="none" xmlns="http://www.w3.org/2000/svg" viewBox="0 0 109 86" id="logo">
        <path fill-rule="evenodd" clip-rule="evenodd"
            d="M59.9115 54.8696C57.1107 54.1262 51.9084 53.5015 47.4255 53.5069C34.3117 53.524 27.6468 60.765 15.2682 60.7807C6.63678 60.7914 0.730469 57.125 0.730469 57.125C5.07917 59.7031 10.942 63.6567 23.3872 63.6406C33.8253 63.6279 43.4516 53.168 59.9115 54.8696Z"
            fill="#BA1313"></path>
        <path
            d="M106.586 39.2601C106.586 39.2601 102.386 65.709 89.2714 61.28C76.1563 56.851 72.909 57.5597 65.4703 59.1537C58.0319 60.7483 45.1698 69.4292 23.2031 64.8231C23.2031 64.8231 32.4755 66.3287 46.6248 60.5712C60.774 54.8133 64.1933 53.5733 77.8719 55.6105C91.5501 57.6482 93.0442 43.9675 93.0442 43.9675H77.9546L79.8214 36.4775C79.8214 36.4775 81.3496 31.5824 77.6867 30.2212H101.28C101.28 30.2212 108.937 29.2821 107.155 37.043H94.7718C94.7718 37.043 94.9102 33.8162 97.7222 32.7108C97.7222 32.7108 92.4292 30.7044 91.4555 39.2601H106.586Z"
            fill="#218DD2"></path>
        <path fill-rule="evenodd" clip-rule="evenodd"
            d="M32.7869 34.7045H35.8089L32.9266 46.0208H29.9516L29.9878 45.878C29.9878 45.878 29.978 45.8741 29.9754 45.8731L32.7869 34.7045ZM47.1342 36.2961C49.0185 29.914 42.8366 30.3694 42.8366 30.3694H21.6865L14.582 58.8955C18.8941 59.0393 22.8676 57.7211 27.3871 56.154L28.8109 50.5276C31.1612 53.7323 35.2841 52.7394 35.2841 52.7394C37.6527 52.1613 40.1993 51.5494 43.013 51.1038L46.8114 37.3863C46.9179 37.0283 47.0252 36.6649 47.1342 36.2961Z"
            fill="#218DD2"></path>
        <path fill-rule="evenodd" clip-rule="evenodd"
            d="M74.747 46.903C74.7424 46.903 74.7381 46.9 74.7381 46.8946C74.7385 46.8164 74.8497 46.0504 76.6569 38.7508C78.7154 30.4357 70.978 31.2442 70.978 31.2442H63.4519L65.9943 20.8415C58.1645 20.4087 52.5921 24.1588 49.3798 37.2223L45.3867 51.6514C45.8944 51.6127 47.9499 51.4919 48.4747 51.468C52.4575 51.2875 55.4973 51.3095 58.2356 51.4557L62.2466 35.7138H65.1045L61.0041 51.6577C67.583 52.2687 71.5777 53.5883 78.2895 54.0769C88.3698 54.8106 89.9419 46.903 89.9419 46.903H74.747Z"
            fill="#218DD2"></path>
        <path
            d="M75.391 23.2458C75.3391 23.1734 75.2743 23.1367 75.1972 23.1367H74.5562L74.3279 23.9877H74.9902C75.0746 23.9877 75.1606 23.9457 75.2492 23.863C75.3382 23.7794 75.3983 23.6737 75.4289 23.5436C75.4562 23.4184 75.4438 23.3186 75.391 23.2458ZM76.3345 24.0778C76.2633 24.2308 76.1696 24.3634 76.0542 24.4769C75.9392 24.5894 75.7999 24.6784 75.6372 24.7454C75.4745 24.8114 75.2875 24.8447 75.0776 24.8447H74.0945L73.7065 26.2812H72.6289L73.7137 22.2548H75.4064C75.6061 22.2548 75.7799 22.292 75.9286 22.3668C76.0772 22.4416 76.1986 22.5404 76.2923 22.6652C76.386 22.7899 76.4499 22.9322 76.4835 23.0907C76.5163 23.2502 76.518 23.416 76.4874 23.5896C76.4567 23.7628 76.406 23.9247 76.3345 24.0778Z"
            fill="#218DD2"></path>
        <path
            d="M79.3201 23.4502L78.5858 24.808H79.3111L79.3201 23.4502ZM79.3094 26.2812L79.3103 25.6484H78.1377L77.7957 26.2812H76.5234L78.9014 22.2548H80.2367L80.4449 26.2812H79.3094Z"
            fill="#218DD2"></path>
        <path
            d="M84.7726 23.6897C84.7436 23.5165 84.6789 23.3781 84.5779 23.2764C84.477 23.1736 84.3377 23.1223 84.1584 23.1223C84.0323 23.1223 83.9101 23.1507 83.7925 23.2064C83.6741 23.2632 83.568 23.3409 83.4748 23.4422C83.3811 23.5424 83.3001 23.6647 83.2316 23.8071C83.1621 23.9499 83.1144 24.1059 83.0876 24.2751C83.0297 24.6175 83.0544 24.8939 83.1609 25.1052C83.2678 25.3165 83.4509 25.4222 83.7103 25.4222C83.8888 25.4222 84.0515 25.3703 84.1976 25.2646C84.3441 25.1605 84.4659 25.0196 84.5639 24.8425L85.3885 25.3317C85.2965 25.4804 85.1904 25.6207 85.0699 25.7513C84.9498 25.8819 84.8152 25.9954 84.6657 26.0927C84.5162 26.1891 84.3518 26.2654 84.1724 26.3216C83.9927 26.3784 83.7998 26.4062 83.5932 26.4062C83.3193 26.4062 83.0731 26.3525 82.8533 26.2458C82.6336 26.1392 82.4525 25.992 82.309 25.8027C82.1659 25.6134 82.0662 25.3884 82.0104 25.1296C81.9551 24.8699 81.9546 24.5853 82.0104 24.2751C82.0654 23.9655 82.1633 23.6794 82.3039 23.4177C82.4445 23.1565 82.6153 22.9311 82.8154 22.7423C83.0156 22.553 83.2409 22.4047 83.491 22.2981C83.7405 22.1915 84.0021 22.1387 84.2755 22.1387C84.4821 22.1387 84.6678 22.1661 84.8313 22.2223C84.9953 22.2795 85.1376 22.3553 85.2581 22.4522C85.3787 22.549 85.48 22.6616 85.5614 22.7902C85.6427 22.9188 85.7041 23.0572 85.745 23.2064L84.7726 23.6897Z"
            fill="#218DD2"></path>
        <path
            d="M88.9833 24.199L89.7708 26.2812H88.5769L88.1625 24.8261L87.7919 25.2066L87.5155 26.2812H86.4375L87.5223 22.2548H88.5999L88.2528 23.6434L89.4036 22.2607H90.802L88.9833 24.199Z"
            fill="#218DD2"></path>
        <path d="M91.8862 26.2812H90.8086L91.8934 22.2548H92.971L91.8862 26.2812Z" fill="#218DD2"></path>
        <path
            d="M96.8606 26.2812H95.8354L95.1982 23.9452L94.5632 26.2812H93.4805L94.5704 22.2548H95.6638L96.2575 24.4642L96.8679 22.2548H97.9454L96.8606 26.2812Z"
            fill="#218DD2"></path>
        <path
            d="M102.157 25.5977C101.935 25.8472 101.681 26.0443 101.397 26.1891C101.112 26.3339 100.806 26.4062 100.477 26.4062C100.206 26.4062 99.9616 26.3539 99.7422 26.2492C99.522 26.1446 99.3406 25.9988 99.1966 25.8115C99.0531 25.6251 98.9522 25.4001 98.8934 25.1389C98.8342 24.8768 98.8325 24.5896 98.8883 24.2756C98.9441 23.9611 99.0424 23.6725 99.1851 23.4094C99.3282 23.1458 99.5003 22.9203 99.7026 22.7329C99.9037 22.5461 100.129 22.3999 100.377 22.2957C100.625 22.1905 100.884 22.1387 101.154 22.1387C101.357 22.1387 101.541 22.1665 101.707 22.2228C101.873 22.2795 102.017 22.3553 102.139 22.4522C102.261 22.5495 102.364 22.662 102.447 22.7906C102.53 22.9193 102.592 23.0577 102.634 23.2064L101.661 23.6902C101.634 23.5371 101.572 23.4045 101.476 23.2915C101.379 23.179 101.234 23.1223 101.042 23.1223C100.912 23.1223 100.789 23.1507 100.673 23.2064C100.557 23.2632 100.451 23.3414 100.355 23.4426C100.26 23.5429 100.178 23.6647 100.112 23.8075C100.045 23.9504 99.9978 24.1059 99.971 24.2756C99.9135 24.618 99.9369 24.8944 100.042 25.1052C100.147 25.317 100.329 25.4221 100.589 25.4221C100.697 25.4221 100.805 25.4021 100.914 25.362C101.021 25.3219 101.113 25.2695 101.188 25.2054L101.27 24.8914H100.65L100.884 24.0218H102.582L102.157 25.5977Z"
            fill="#218DD2"></path>
    </symbol>



    <symbol fill="none" xmlns="http://www.w3.org/2000/svg" viewBox="0 0 142 60" id="logoGray">
        <path fill-rule="evenodd" clip-rule="evenodd"
            d="M78.3215 45.0749C74.6148 44.091 67.73 43.2643 61.7973 43.2715C44.4421 43.2941 35.6217 52.877 19.2395 52.8977C7.81654 52.9119 0 48.0596 0 48.0596C5.75516 51.4716 13.5142 56.7039 29.9843 56.6826C43.7984 56.6657 56.5381 42.8229 78.3215 45.0749Z"
            fill="#BA1313"></path>
        <path
            d="M140.087 24.41C140.087 24.41 134.53 59.4129 117.173 53.5515C99.8162 47.6901 95.5187 48.628 85.6741 50.7376C75.83 52.8478 58.808 64.3364 29.7368 58.2406C29.7368 58.2406 42.0081 60.2331 60.7335 52.6135C79.4589 44.9933 83.9841 43.3524 102.087 46.0485C120.189 48.7452 122.166 30.6398 122.166 30.6398H102.196L104.667 20.7274C104.667 20.7274 106.689 14.2491 101.841 12.4476H133.065C133.065 12.4476 143.199 11.2048 140.84 21.4757H124.452C124.452 21.4757 124.636 17.2054 128.357 15.7425C128.357 15.7425 121.352 13.0872 120.064 24.41H140.087Z"
            fill="white"></path>
        <path fill-rule="evenodd" clip-rule="evenodd"
            d="M42.4267 18.3937H46.4261L42.6116 33.37H38.6743L38.7222 33.181C38.7222 33.181 38.7093 33.1758 38.7059 33.1745L42.4267 18.3937ZM61.4143 20.5001C63.908 12.0539 55.7268 12.6566 55.7268 12.6566H27.7361L18.334 50.4086C24.0407 50.5989 29.2992 48.8544 35.2804 46.7804L37.1648 39.3344C40.2752 43.5756 45.7316 42.2615 45.7316 42.2615C48.8662 41.4964 52.2365 40.6866 55.9601 40.0969L60.987 21.9429C61.1279 21.4691 61.27 20.9882 61.4143 20.5001Z"
            fill="white"></path>
        <path fill-rule="evenodd" clip-rule="evenodd"
            d="M97.9576 34.5389C97.9514 34.5389 97.9458 34.535 97.9458 34.5279C97.9464 34.4243 98.0935 33.4106 100.485 23.7501C103.209 12.7457 92.9696 13.8157 92.9696 13.8157H83.0094L86.374 0.0486221C76.0119 -0.524254 68.6373 4.43874 64.3861 21.7272L59.1016 40.823C59.7735 40.7719 62.4938 40.612 63.1882 40.5803C68.4592 40.3414 72.4822 40.3705 76.1061 40.5641L81.4142 19.7309H85.1965L79.77 40.8315C88.4766 41.6399 93.7633 43.3864 102.646 44.0331C115.986 45.004 118.067 34.5389 118.067 34.5389H97.9576Z"
            fill="white"></path>
        <path
            d="M98.8068 3.22593C98.7381 3.13013 98.6524 3.08156 98.5504 3.08156H97.702L97.3999 4.20789H98.2764C98.388 4.20789 98.5019 4.15221 98.6191 4.04282C98.7369 3.93213 98.8164 3.79234 98.857 3.62015C98.8931 3.45444 98.8767 3.32238 98.8068 3.22593ZM100.055 4.32701C99.9612 4.52962 99.8372 4.70502 99.6845 4.8552C99.5323 5.00408 99.348 5.1219 99.1326 5.21059C98.9173 5.29797 98.6699 5.34199 98.392 5.34199H97.091L96.5775 7.24316H95.1514L96.5871 1.91447H98.8271C99.0915 1.91447 99.3215 1.96367 99.5182 2.06271C99.7149 2.16175 99.8756 2.29249 99.9996 2.45756C100.124 2.62262 100.208 2.81099 100.253 3.02072C100.296 3.23175 100.298 3.4512 100.258 3.68099C100.217 3.91014 100.15 4.1244 100.055 4.32701Z"
            fill="white"></path>
        <path
            d="M104.009 3.49653L103.037 5.29347H103.997L104.009 3.49653ZM103.995 7.24316L103.996 6.40557H102.444L101.991 7.24316H100.308L103.455 1.91447H105.222L105.497 7.24316H103.995Z"
            fill="white"></path>
        <path
            d="M111.228 3.80719C111.19 3.57804 111.104 3.39483 110.971 3.26018C110.837 3.12425 110.653 3.05628 110.415 3.05628C110.249 3.05628 110.087 3.09382 109.931 3.16761C109.774 3.2427 109.634 3.34562 109.511 3.47962C109.387 3.61232 109.28 3.77417 109.189 3.96253C109.097 4.15155 109.034 4.35802 108.998 4.582C108.922 5.03512 108.954 5.40086 109.095 5.6805C109.237 5.96014 109.479 6.09997 109.822 6.09997C110.059 6.09997 110.274 6.03134 110.467 5.89152C110.661 5.75364 110.822 5.56723 110.952 5.3329L112.043 5.98022C111.922 6.177 111.781 6.36276 111.622 6.5356C111.463 6.70843 111.285 6.8586 111.087 6.98742C110.889 7.11494 110.671 7.21593 110.434 7.29038C110.196 7.36546 109.941 7.40234 109.667 7.40234C109.305 7.40234 108.979 7.33118 108.688 7.19006C108.397 7.04895 108.158 6.8541 107.968 6.60359C107.778 6.35308 107.647 6.05529 107.573 5.71286C107.499 5.36914 107.499 4.99239 107.573 4.582C107.645 4.17225 107.775 3.79357 107.961 3.44726C108.147 3.10159 108.373 2.80319 108.638 2.55333C108.903 2.30282 109.201 2.10667 109.532 1.96555C109.862 1.82444 110.209 1.75454 110.57 1.75454C110.844 1.75454 111.09 1.7908 111.306 1.86524C111.523 1.94098 111.711 2.04129 111.871 2.16946C112.03 2.29763 112.164 2.44654 112.272 2.61678C112.38 2.78702 112.461 2.97018 112.515 3.16761L111.228 3.80719Z"
            fill="white"></path>
        <path
            d="M116.801 4.48753L117.843 7.24316H116.263L115.715 5.31742L115.224 5.821L114.858 7.24316H113.432L114.867 1.91447H116.293L115.834 3.75219L117.357 1.92225H119.208L116.801 4.48753Z"
            fill="white"></path>
        <path d="M120.639 7.24316H119.213L120.649 1.91447H122.075L120.639 7.24316Z" fill="white"></path>
        <path
            d="M127.221 7.24316H125.865L125.021 4.15159L124.181 7.24316H122.748L124.191 1.91447H125.637L126.423 4.83841L127.231 1.91447H128.657L127.221 7.24316Z"
            fill="white"></path>
        <path
            d="M134.232 6.33232C133.938 6.66245 133.602 6.92335 133.226 7.11496C132.849 7.30656 132.443 7.40234 132.008 7.40234C131.65 7.40234 131.326 7.33309 131.036 7.19457C130.745 7.05604 130.504 6.86313 130.314 6.61521C130.124 6.36858 129.99 6.07081 129.913 5.72515C129.834 5.37819 129.832 4.9982 129.906 4.58263C129.98 4.1664 130.11 3.78449 130.299 3.43624C130.488 3.08733 130.716 2.78892 130.984 2.541C131.25 2.29373 131.548 2.10019 131.876 1.96231C132.204 1.82314 132.547 1.75454 132.904 1.75454C133.173 1.75454 133.417 1.79143 133.636 1.86587C133.855 1.94096 134.046 2.04129 134.208 2.16946C134.37 2.29827 134.505 2.44713 134.616 2.61737C134.725 2.78762 134.808 2.97083 134.863 3.16761L133.576 3.80782C133.54 3.60521 133.458 3.42978 133.33 3.28025C133.202 3.13137 133.011 3.05628 132.756 3.05628C132.584 3.05628 132.421 3.09382 132.268 3.16761C132.114 3.2427 131.973 3.34625 131.847 3.48025C131.721 3.61295 131.613 3.77415 131.525 3.96317C131.436 4.15218 131.374 4.35801 131.339 4.58263C131.263 5.03575 131.294 5.40151 131.433 5.6805C131.571 5.96079 131.812 6.09993 132.156 6.09993C132.299 6.09993 132.443 6.0734 132.586 6.02032C132.729 5.96724 132.85 5.89797 132.95 5.81317L133.058 5.39762H132.237L132.547 4.24668H134.794L134.232 6.33232Z"
            fill="white"></path>
    </symbol>


    <symbol fill="none" xmlns="http://www.w3.org/2000/svg" viewBox="0 0 26 47" id="adv1">
        <path
            d="M6.83988 11.4994L8 11.2295V10.0384V2.62447L9.2441 1.5H16.7559L18 2.62447V10.0384V11.2295L19.1601 11.4994C22.3325 12.2375 24.5 14.783 24.5 17.625V39.1667C24.5 42.5255 21.4378 45.5 17.3333 45.5H8.66667C4.56235 45.5 1.5 42.5255 1.5 39.1667V17.625C1.5 14.783 3.6674 12.2375 6.83988 11.4994ZM4.33333 35.7083H2.83333V37.2083V39.1667C2.83333 42.2972 5.59124 44.5833 8.66667 44.5833H17.3333C20.4086 44.5833 23.1667 42.2972 23.1667 39.1667V37.2083V35.7083H21.6667H4.33333ZM21.6667 34.7917H23.1667V33.2917V23.5V22H21.6667H4.33333H2.83333V23.5V33.2917V34.7917H4.33333H21.6667ZM2.83333 19.5833V21.0833H4.33333H21.6667H23.1667V19.5833V17.625C23.1667 14.4944 20.4086 12.2083 17.3333 12.2083H16.6667V3.91667V2.41667H15.1667H10.8333H9.33333V3.91667V12.2083H8.66667C5.59127 12.2083 2.83333 14.4944 2.83333 17.625V19.5833Z"
            stroke="white" stroke-width="3"></path>
    </symbol>
    <symbol fill="none" xmlns="http://www.w3.org/2000/svg" viewBox="0 0 45 45" id="adv2">
        <path
            d="M43.3481 28.8781C43.3481 36.8712 38.8542 43.3509 30.7131 43.3509C22.5721 43.3509 18.0781 36.8712 18.0781 28.8781C18.0781 20.885 30.7131 2 30.7131 2C30.7131 2 43.3481 20.885 43.3481 28.8781Z"
            stroke="white" stroke-width="3" stroke-linecap="round" stroke-linejoin="round"></path>
        <path
            d="M13.4864 13.9458C13.4864 17.4983 11.4437 20.3782 7.74319 20.3782C4.04267 20.3782 2 17.4983 2 13.9458C2 10.3933 7.74319 2 7.74319 2C7.74319 2 13.4864 10.3933 13.4864 13.9458Z"
            stroke="white" stroke-width="3" stroke-linecap="round" stroke-linejoin="round"></path>
    </symbol>
    <symbol fill="none" xmlns="http://www.w3.org/2000/svg" viewBox="0 0 45 45" id="adv3">
        <path
            d="M43.3509 2L27.27 15.7836L18.0809 6.59455L2 20.3782M5.44591 43.3509C3.54278 43.3509 2 41.8081 2 39.905V35.3105C2 33.4074 3.54278 31.8646 5.44591 31.8646C7.34904 31.8646 8.89182 33.4074 8.89182 35.3105V39.905C8.89182 41.8081 7.34904 43.3509 5.44591 43.3509ZM21.5268 43.3509C19.6238 43.3509 18.0809 41.8081 18.0809 39.905V28.4187C18.0809 26.5156 19.6238 24.9727 21.5268 24.9727C23.4299 24.9727 24.9727 26.5156 24.9727 28.4187V39.905C24.9727 41.8081 23.4299 43.3509 21.5268 43.3509ZM37.6077 43.3509C35.7047 43.3509 34.1618 41.8081 34.1618 39.905V33.0132C34.1618 31.1101 35.7047 29.5673 37.6077 29.5673C39.5108 29.5673 41.0537 31.1101 41.0537 33.0132V39.905C41.0537 41.8081 39.5108 43.3509 37.6077 43.3509Z"
            stroke="white" stroke-width="3" stroke-linecap="round" stroke-linejoin="round"></path>
    </symbol>
    <symbol fill="none" xmlns="http://www.w3.org/2000/svg" viewBox="0 0 41 45" id="adv4">
        <path
            d="M13.4864 22.5193L18.0809 27.1138L27.27 17.9247M38.7564 22.5193C38.7564 32.7676 26.2133 40.1938 21.8517 42.4665C21.38 42.7123 21.1441 42.8352 20.817 42.8988C20.562 42.9485 20.1944 42.9485 19.9394 42.8988C19.6123 42.8352 19.3764 42.7123 18.9047 42.4665C14.543 40.1938 2 32.7676 2 22.5193V13.83C2 11.9933 2 11.075 2.30039 10.2856C2.56575 9.58821 2.99697 8.96597 3.55677 8.47263C4.19045 7.91418 5.05032 7.59174 6.77006 6.94682L19.0876 2.32776C19.5652 2.14867 19.8039 2.05912 20.0497 2.0236C20.2675 1.99213 20.4889 1.99213 20.7067 2.0236C20.9525 2.05912 21.1912 2.14867 21.6688 2.32776L33.9863 6.94682C35.7061 7.59174 36.5659 7.91418 37.1995 8.47263C37.7594 8.96597 38.1906 9.58821 38.4559 10.2856C38.7564 11.075 38.7564 11.9933 38.7564 13.83V22.5193Z"
            stroke="white" stroke-width="3" stroke-linecap="round" stroke-linejoin="round"></path>
    </symbol>
    <symbol fill="none" xmlns="http://www.w3.org/2000/svg" viewBox="0 0 50 36" id="adv5">
        <path
            d="M47.9455 8.49714H43.3509M43.3509 8.49714H41.0537C36.4591 3.90668 29.5673 -0.692439 24.9727 3.90259M43.3509 8.49714V26.8752M24.9727 3.90259L18.0799 10.7982C17.8976 10.9805 17.8064 11.0717 17.7331 11.1524C16.1397 12.9055 16.1404 15.5825 17.7347 17.3349C17.808 17.4155 17.8994 17.5067 18.0816 17.6889C18.2639 17.8711 18.3551 17.9623 18.4358 18.0355C20.1885 19.6282 22.8648 19.628 24.6169 18.0346C24.6975 17.9613 24.7887 17.8701 24.9709 17.688L27.2691 15.3898M24.9727 3.90259C20.3782 -0.692439 13.4864 3.90684 8.89182 8.49728H6.59455M43.3509 26.8752V33.767H47.9455M43.3509 26.8752H36.8533M6.59455 8.49728H2M6.59455 8.49728V26.8752M6.59455 26.8752H11.1891L12.0666 28.6303C13.2466 30.9903 16.4978 31.2835 18.0809 29.1725C19.3335 30.4252 19.9598 31.0514 20.6355 31.3864C21.9208 32.0232 23.4301 32.0232 24.7154 31.3864C25.3911 31.0514 26.0175 30.4252 27.27 29.1725L28.4187 30.3211C28.6015 30.504 28.6932 30.5957 28.774 30.6694C30.5266 32.2623 33.2025 32.2623 34.9551 30.6694C35.036 30.5957 35.1276 30.504 35.3105 30.3211C35.4933 30.1383 35.585 30.0468 35.6585 29.9657C37.2514 28.2134 37.2514 25.5373 35.6585 23.7849C35.585 23.7038 35.4933 23.6124 35.3105 23.4293L31.8646 19.9834M6.59455 26.8752V33.767H2"
            stroke="white" stroke-width="3" stroke-linecap="round" stroke-linejoin="round"></path>
    </symbol>



  <symbol fill="none" xmlns="http://www.w3.org/2000/svg" viewBox="0 0 48 48" id="calc1">
    <g filter="url(#filter0_d_26_2756)">
      <circle cx="24" cy="20" r="20" fill="#218DD2"></circle>
      <circle cx="24" cy="20" r="19.5" stroke="white"></circle>
    </g>
    <g filter="url(#filter1_d_26_2756)">
      <path d="M18.5 11C17.5625 11 16.7644 11.3786 16.252 11.9551C15.7395 12.5316 15.5 13.2708 15.5 14C15.5 14.7292 15.7395 15.4684 16.252 16.0449C16.7644 16.6214 17.5625 17 18.5 17C19.4375 17 20.2356 16.6214 20.748 16.0449C21.2605 15.4684 21.5 14.7292 21.5 14C21.5 13.2708 21.2605 12.5316 20.748 11.9551C20.2356 11.3786 19.4375 11 18.5 11ZM29.5 11C28.5625 11 27.7644 11.3786 27.252 11.9551C26.7395 12.5316 26.5 13.2708 26.5 14C26.5 14.7292 26.7395 15.4684 27.252 16.0449C27.7644 16.6214 28.5625 17 29.5 17C30.4375 17 31.2356 16.6214 31.748 16.0449C32.2605 15.4684 32.5 14.7292 32.5 14C32.5 13.2708 32.2605 12.5316 31.748 11.9551C31.2356 11.3786 30.4375 11 29.5 11ZM18.5 12.5C19.0625 12.5 19.3894 12.6839 19.627 12.9512C19.8645 13.2184 20 13.6042 20 14C20 14.3958 19.8645 14.7816 19.627 15.0488C19.3894 15.3161 19.0625 15.5 18.5 15.5C17.9375 15.5 17.6106 15.3161 17.373 15.0488C17.1355 14.7816 17 14.3958 17 14C17 13.6042 17.1355 13.2184 17.373 12.9512C17.6106 12.6839 17.9375 12.5 18.5 12.5ZM29.5 12.5C30.0625 12.5 30.3894 12.6839 30.627 12.9512C30.8645 13.2184 31 13.6042 31 14C31 14.3958 30.8645 14.7816 30.627 15.0488C30.3894 15.3161 30.0625 15.5 29.5 15.5C28.9375 15.5 28.6106 15.3161 28.373 15.0488C28.1355 14.7816 28 14.3958 28 14C28 13.6042 28.1355 13.2184 28.373 12.9512C28.6106 12.6839 28.9375 12.5 29.5 12.5ZM24 16C23.0625 16 22.2644 16.3786 21.752 16.9551C21.2395 17.5316 21 18.2708 21 19C21 19.7292 21.2395 20.4684 21.752 21.0449C22.2644 21.6214 23.0625 22 24 22C24.9375 22 25.7356 21.6214 26.248 21.0449C26.7605 20.4684 27 19.7292 27 19C27 18.2708 26.7605 17.5316 26.248 16.9551C25.7356 16.3786 24.9375 16 24 16ZM24 17.5C24.5625 17.5 24.8894 17.6839 25.127 17.9512C25.3645 18.2184 25.5 18.6042 25.5 19C25.5 19.3958 25.3645 19.7816 25.127 20.0488C24.8894 20.3161 24.5625 20.5 24 20.5C23.4375 20.5 23.1106 20.3161 22.873 20.0488C22.6355 19.7816 22.5 19.3958 22.5 19C22.5 18.6042 22.6355 18.2184 22.873 17.9512C23.1106 17.6839 23.4375 17.5 24 17.5ZM15.75 18C14.785 18 14 18.785 14 19.75V21C14 22.68 15.975 24 18.5 24H18.6055C18.8305 23.195 19.4197 22.5398 20.1797 22.2148C19.7047 22.3898 19.13 22.5 18.5 22.5C16.785 22.5 15.5 21.71 15.5 21V19.75C15.5 19.61 15.61 19.5 15.75 19.5H20.0303C20.0103 19.335 20 19.17 20 19C20 18.655 20.045 18.32 20.125 18H15.75ZM27.875 18C27.955 18.32 28 18.655 28 19C28 19.17 27.9897 19.335 27.9697 19.5H32.25C32.39 19.5 32.5 19.61 32.5 19.75V21C32.5 21.71 31.215 22.5 29.5 22.5C28.87 22.5 28.2953 22.3898 27.8203 22.2148C28.5803 22.5398 29.1695 23.195 29.3945 24H29.5C32.025 24 34 22.68 34 21V19.75C34 18.785 33.215 18 32.25 18H27.875ZM21.25 23C20.2925 23 19.5 23.7925 19.5 24.75V26C19.5 26.9591 20.14 27.7406 20.9629 28.2344C21.7858 28.7281 22.8429 29 24 29C25.1571 29 26.2142 28.7281 27.0371 28.2344C27.86 27.7406 28.5 26.9591 28.5 26V24.75C28.5 23.7925 27.7075 23 26.75 23H21.25ZM21.25 24.5H26.75C26.8975 24.5 27 24.6025 27 24.75V26C27 26.2834 26.7999 26.6276 26.2656 26.9482C25.7313 27.2688 24.9139 27.5 24 27.5C23.0861 27.5 22.2687 27.2688 21.7344 26.9482C21.2001 26.6276 21 26.2834 21 26V24.75C21 24.6025 21.1025 24.5 21.25 24.5Z" fill="white"></path>
    </g>
    <defs>
      <filter id="filter0_d_26_2756" x="0" y="0" width="48" height="48" filterUnits="userSpaceOnUse" color-interpolation-filters="sRGB">
        <feFlood flood-opacity="0" result="BackgroundImageFix"></feFlood>
        <feColorMatrix in="SourceAlpha" type="matrix" values="0 0 0 0 0 0 0 0 0 0 0 0 0 0 0 0 0 0 127 0" result="hardAlpha"></feColorMatrix>
        <feOffset dy="4"></feOffset>
        <feGaussianBlur stdDeviation="2"></feGaussianBlur>
        <feComposite in2="hardAlpha" operator="out"></feComposite>
        <feColorMatrix type="matrix" values="0 0 0 0 0 0 0 0 0 0 0 0 0 0 0 0 0 0 0.25 0"></feColorMatrix>
        <feBlend mode="normal" in2="BackgroundImageFix" result="effect1_dropShadow_26_2756"></feBlend>
        <feBlend mode="normal" in="SourceGraphic" in2="effect1_dropShadow_26_2756" result="shape"></feBlend>
      </filter>
      <filter id="filter1_d_26_2756" x="10" y="11" width="28" height="26" filterUnits="userSpaceOnUse" color-interpolation-filters="sRGB">
        <feFlood flood-opacity="0" result="BackgroundImageFix"></feFlood>
        <feColorMatrix in="SourceAlpha" type="matrix" values="0 0 0 0 0 0 0 0 0 0 0 0 0 0 0 0 0 0 127 0" result="hardAlpha"></feColorMatrix>
        <feOffset dy="4"></feOffset>
        <feGaussianBlur stdDeviation="2"></feGaussianBlur>
        <feComposite in2="hardAlpha" operator="out"></feComposite>
        <feColorMatrix type="matrix" values="0 0 0 0 0 0 0 0 0 0 0 0 0 0 0 0 0 0 0.25 0"></feColorMatrix>
        <feBlend mode="normal" in2="BackgroundImageFix" result="effect1_dropShadow_26_2756"></feBlend>
        <feBlend mode="normal" in="SourceGraphic" in2="effect1_dropShadow_26_2756" result="shape"></feBlend>
      </filter>
    </defs>
  </symbol>
  <symbol fill="none" xmlns="http://www.w3.org/2000/svg" viewBox="0 0 48 48" id="calc2">
    <g filter="url(#filter0_d_26_2763)">
      <circle cx="24" cy="20" r="20" fill="#218DD2"></circle>
      <circle cx="24" cy="20" r="19.5" stroke="white"></circle>
    </g>
    <g filter="url(#filter1_d_26_2763)">
      <path fill-rule="evenodd" clip-rule="evenodd" d="M20.3633 17.2741C20.3633 15.7679 21.5843 14.5469 23.0906 14.5469H23.9996C24.1921 14.547 24.3858 14.5703 24.5753 14.6019C24.8905 14.6544 25.3246 14.7612 25.7698 14.9838C26.2186 15.2081 26.695 15.559 27.0572 16.1023C27.4232 16.6512 27.636 17.3423 27.636 18.1832C27.636 19.0241 27.4232 19.7151 27.0572 20.2641C26.695 20.8074 26.2186 21.1582 25.7698 21.3827C25.3246 21.6052 24.8905 21.7121 24.5753 21.7646C24.3869 21.796 24.195 21.8184 24.0037 21.8196H22.1815V24.5469C22.1815 25.049 21.7745 25.456 21.2724 25.456C20.7703 25.456 20.3633 25.049 20.3633 24.5469V17.2741ZM22.1815 17.2741V20.0014L23.9999 20.0012C24.3272 19.9903 24.6649 19.9023 24.9567 19.7564C25.1897 19.6399 25.3952 19.4794 25.5444 19.2556C25.6897 19.0375 25.8178 18.706 25.8178 18.1832C25.8178 17.6605 25.6897 17.3289 25.5444 17.1108C25.3952 16.8871 25.1898 16.7265 24.9567 16.61C24.6649 16.4641 24.3272 16.3761 24 16.3652L23.0906 16.3651C22.5885 16.3651 22.1815 16.7721 22.1815 17.2741Z" fill="white"></path>
    </g>
    <g filter="url(#filter2_d_26_2763)">
      <path fill-rule="evenodd" clip-rule="evenodd" d="M24 30C29.5228 30 34 25.5228 34 20C34 14.4772 29.5228 10 24 10C18.4772 10 14 14.4772 14 20C14 25.5228 18.4772 30 24 30ZM24 28.1756C19.4847 28.1756 15.8244 24.5153 15.8244 20C15.8244 15.4847 19.4847 11.8244 24 11.8244C28.5153 11.8244 32.1756 15.4847 32.1756 20C32.1756 24.5153 28.5153 28.1756 24 28.1756Z" fill="white"></path>
    </g>
    <defs>
      <filter id="filter0_d_26_2763" x="0" y="0" width="48" height="48" filterUnits="userSpaceOnUse" color-interpolation-filters="sRGB">
        <feFlood flood-opacity="0" result="BackgroundImageFix"></feFlood>
        <feColorMatrix in="SourceAlpha" type="matrix" values="0 0 0 0 0 0 0 0 0 0 0 0 0 0 0 0 0 0 127 0" result="hardAlpha"></feColorMatrix>
        <feOffset dy="4"></feOffset>
        <feGaussianBlur stdDeviation="2"></feGaussianBlur>
        <feComposite in2="hardAlpha" operator="out"></feComposite>
        <feColorMatrix type="matrix" values="0 0 0 0 0 0 0 0 0 0 0 0 0 0 0 0 0 0 0.25 0"></feColorMatrix>
        <feBlend mode="normal" in2="BackgroundImageFix" result="effect1_dropShadow_26_2763"></feBlend>
        <feBlend mode="normal" in="SourceGraphic" in2="effect1_dropShadow_26_2763" result="shape"></feBlend>
      </filter>
      <filter id="filter1_d_26_2763" x="16.3633" y="14.5469" width="15.2729" height="18.9092" filterUnits="userSpaceOnUse" color-interpolation-filters="sRGB">
        <feFlood flood-opacity="0" result="BackgroundImageFix"></feFlood>
        <feColorMatrix in="SourceAlpha" type="matrix" values="0 0 0 0 0 0 0 0 0 0 0 0 0 0 0 0 0 0 127 0" result="hardAlpha"></feColorMatrix>
        <feOffset dy="4"></feOffset>
        <feGaussianBlur stdDeviation="2"></feGaussianBlur>
        <feComposite in2="hardAlpha" operator="out"></feComposite>
        <feColorMatrix type="matrix" values="0 0 0 0 0 0 0 0 0 0 0 0 0 0 0 0 0 0 0.25 0"></feColorMatrix>
        <feBlend mode="normal" in2="BackgroundImageFix" result="effect1_dropShadow_26_2763"></feBlend>
        <feBlend mode="normal" in="SourceGraphic" in2="effect1_dropShadow_26_2763" result="shape"></feBlend>
      </filter>
      <filter id="filter2_d_26_2763" x="10" y="10" width="28" height="28" filterUnits="userSpaceOnUse" color-interpolation-filters="sRGB">
        <feFlood flood-opacity="0" result="BackgroundImageFix"></feFlood>
        <feColorMatrix in="SourceAlpha" type="matrix" values="0 0 0 0 0 0 0 0 0 0 0 0 0 0 0 0 0 0 127 0" result="hardAlpha"></feColorMatrix>
        <feOffset dy="4"></feOffset>
        <feGaussianBlur stdDeviation="2"></feGaussianBlur>
        <feComposite in2="hardAlpha" operator="out"></feComposite>
        <feColorMatrix type="matrix" values="0 0 0 0 0 0 0 0 0 0 0 0 0 0 0 0 0 0 0.25 0"></feColorMatrix>
        <feBlend mode="normal" in2="BackgroundImageFix" result="effect1_dropShadow_26_2763"></feBlend>
        <feBlend mode="normal" in="SourceGraphic" in2="effect1_dropShadow_26_2763" result="shape"></feBlend>
      </filter>
    </defs>
  </symbol>

  <symbol fill="none" xmlns="http://www.w3.org/2000/svg" viewBox="0 0 48 48" id="calc3">
    <g filter="url(#filter0_d_26_2771)">
      <circle cx="24" cy="20" r="20" fill="#218DD2"></circle>
      <circle cx="24" cy="20" r="19.5" stroke="white"></circle>
    </g>
    <g filter="url(#filter1_d_26_2771)">
      <path d="M23 10C20.2475 10 18 12.2475 18 15C18 17.7525 20.2475 20 23 20C25.7525 20 28 17.7525 28 15C28 12.2475 25.7525 10 23 10ZM23 11.5C24.9419 11.5 26.5 13.0581 26.5 15C26.5 16.9419 24.9419 18.5 23 18.5C21.0581 18.5 19.5 16.9419 19.5 15C19.5 13.0581 21.0581 11.5 23 11.5ZM28.5 20C25.4625 20 23 22.4625 23 25.5C23 28.5375 25.4625 31 28.5 31C31.5375 31 34 28.5375 34 25.5C34 22.4625 31.5375 20 28.5 20ZM17.25 22C16.0095 22 15 23.0095 15 24.25V24.6309C15 25.8079 15.4898 26.9394 16.3438 27.7344C17.4532 28.7679 19.5085 30 23 30C23.2745 30 23.5369 29.9901 23.7939 29.9756C23.3754 29.5351 23.0174 29.0376 22.7344 28.4941C19.8969 28.4356 18.2507 27.4607 17.3662 26.6367C16.8157 26.1242 16.5 25.3934 16.5 24.6309V24.25C16.5 23.8365 16.8365 23.5 17.25 23.5H22.3174C22.4899 22.966 22.7318 22.4635 23.0293 22H17.25ZM31.5 23C31.6279 23 31.7558 23.0487 31.8535 23.1465C32.049 23.342 32.049 23.658 31.8535 23.8535L27.8535 27.8535C27.756 27.951 27.628 28 27.5 28C27.372 28 27.244 27.951 27.1465 27.8535L25.1465 25.8535C24.951 25.658 24.951 25.342 25.1465 25.1465C25.342 24.951 25.658 24.951 25.8535 25.1465L27.5 26.793L31.1465 23.1465C31.2442 23.0487 31.3721 23 31.5 23Z" fill="white"></path>
    </g>
    <defs>
      <filter id="filter0_d_26_2771" x="0" y="0" width="48" height="48" filterUnits="userSpaceOnUse" color-interpolation-filters="sRGB">
        <feFlood flood-opacity="0" result="BackgroundImageFix"></feFlood>
        <feColorMatrix in="SourceAlpha" type="matrix" values="0 0 0 0 0 0 0 0 0 0 0 0 0 0 0 0 0 0 127 0" result="hardAlpha"></feColorMatrix>
        <feOffset dy="4"></feOffset>
        <feGaussianBlur stdDeviation="2"></feGaussianBlur>
        <feComposite in2="hardAlpha" operator="out"></feComposite>
        <feColorMatrix type="matrix" values="0 0 0 0 0 0 0 0 0 0 0 0 0 0 0 0 0 0 0.25 0"></feColorMatrix>
        <feBlend mode="normal" in2="BackgroundImageFix" result="effect1_dropShadow_26_2771"></feBlend>
        <feBlend mode="normal" in="SourceGraphic" in2="effect1_dropShadow_26_2771" result="shape"></feBlend>
      </filter>
      <filter id="filter1_d_26_2771" x="11" y="10" width="27" height="29" filterUnits="userSpaceOnUse" color-interpolation-filters="sRGB">
        <feFlood flood-opacity="0" result="BackgroundImageFix"></feFlood>
        <feColorMatrix in="SourceAlpha" type="matrix" values="0 0 0 0 0 0 0 0 0 0 0 0 0 0 0 0 0 0 127 0" result="hardAlpha"></feColorMatrix>
        <feOffset dy="4"></feOffset>
        <feGaussianBlur stdDeviation="2"></feGaussianBlur>
        <feComposite in2="hardAlpha" operator="out"></feComposite>
        <feColorMatrix type="matrix" values="0 0 0 0 0 0 0 0 0 0 0 0 0 0 0 0 0 0 0.25 0"></feColorMatrix>
        <feBlend mode="normal" in2="BackgroundImageFix" result="effect1_dropShadow_26_2771"></feBlend>
        <feBlend mode="normal" in="SourceGraphic" in2="effect1_dropShadow_26_2771" result="shape"></feBlend>
      </filter>
    </defs>
  </symbol>


  <symbol fill="none" xmlns="http://www.w3.org/2000/svg" viewBox="0 0 11 21" id="bottle">
    <path d="M4.2 0C3.5093 0 2.94 0.569297 2.94 1.26V2.52C2.94 2.73984 3.01711 2.96461 3.17625 3.12375C3.29438 3.24187 3.44531 3.31734 3.60938 3.34687C3.54703 3.39609 3.46992 3.43383 3.37313 3.45187H3.36C1.45195 3.87023 0 5.55352 0 7.59937V8.82C0 9.34828 0.374063 9.72398 0.84 9.90937V15.2906C0.374063 15.476 0 15.8517 0 16.38V18.9C0 20.0534 0.946641 21 2.1 21H8.82C9.97336 21 10.92 20.0534 10.92 18.9V16.38C10.92 15.8517 10.5459 15.476 10.08 15.2906V9.90937C10.5459 9.72398 10.92 9.34828 10.92 8.82V7.59937C10.92 5.55352 9.46805 3.87023 7.56 3.45187H7.54688C7.45008 3.43383 7.37297 3.39609 7.31063 3.34687C7.47469 3.31734 7.62563 3.24187 7.74375 3.12375C7.90289 2.96461 7.98 2.73984 7.98 2.52V1.26C7.98 0.569297 7.4107 0 6.72 0H4.2ZM4.2 0.84H6.72C6.95297 0.84 7.14 1.02703 7.14 1.26V2.52H3.78V1.26C3.78 1.02703 3.96703 0.84 4.2 0.84ZM4.47563 3.36H6.44438C6.59695 3.79969 6.90703 4.17047 7.38938 4.26562V4.27875C7.39266 4.27875 7.39922 4.27875 7.4025 4.27875C8.9332 4.62 10.08 5.95383 10.08 7.59937V8.82C10.08 9.05297 9.89297 9.24 9.66 9.24H2.52V10.08H9.24V15.12H2.52V15.96H9.66C9.89297 15.96 10.08 16.147 10.08 16.38V18.9C10.08 19.5956 9.51562 20.16 8.82 20.16H2.1C1.40438 20.16 0.84 19.5956 0.84 18.9V16.38C0.84 16.147 1.02703 15.96 1.26 15.96H1.68V9.24H1.26C1.02703 9.24 0.84 9.05297 0.84 8.82V7.59937C0.84 5.95383 1.9868 4.62 3.5175 4.27875C3.52406 4.27711 3.52406 4.26727 3.53063 4.26562C4.01297 4.17047 4.32305 3.79969 4.47563 3.36Z" fill="#218DD2"></path>
  </symbol>
  <symbol fill="none" xmlns="http://www.w3.org/2000/svg" viewBox="0 0 16 16" id="volume">
    <path d="M2.74752 1.61145H4.83434C5.04803 1.61145 5.25297 1.52656 5.40407 1.37546C5.55517 1.22435 5.64006 1.01941 5.64006 0.805723C5.64006 0.592032 5.55517 0.387093 5.40407 0.235991C5.25297 0.0848884 5.04803 0 4.83434 0H1.61145C1.18406 0 0.774186 0.169777 0.471981 0.471981C0.169777 0.774186 0 1.18406 0 1.61145V4.83434C0 5.04803 0.0848884 5.25297 0.235991 5.40407C0.387093 5.55517 0.592032 5.64006 0.805723 5.64006C1.01941 5.64006 1.22435 5.55517 1.37546 5.40407C1.52656 5.25297 1.61145 5.04803 1.61145 4.83434V2.74752L5.068 6.21212C5.1429 6.28764 5.23201 6.34758 5.3302 6.38849C5.42838 6.4294 5.5337 6.45046 5.64006 6.45046C5.74643 6.45046 5.85174 6.4294 5.94992 6.38849C6.04811 6.34758 6.13722 6.28764 6.21212 6.21212C6.28764 6.13722 6.34758 6.04811 6.38849 5.94992C6.4294 5.85174 6.45046 5.74643 6.45046 5.64006C6.45046 5.5337 6.4294 5.42838 6.38849 5.3302C6.34758 5.23201 6.28764 5.1429 6.21212 5.068L2.74752 1.61145Z" fill="#218DD2"></path>
    <path d="M14.3878 0H11.1649C10.9513 0 10.7463 0.0848884 10.5952 0.235991C10.4441 0.387093 10.3592 0.592032 10.3592 0.805723C10.3592 1.01941 10.4441 1.22435 10.5952 1.37546C10.7463 1.52656 10.9513 1.61145 11.1649 1.61145H13.2518L9.78716 5.068C9.71164 5.1429 9.6517 5.23201 9.61079 5.3302C9.56989 5.42838 9.54883 5.5337 9.54883 5.64006C9.54883 5.74643 9.56989 5.85174 9.61079 5.94992C9.6517 6.04811 9.71164 6.13722 9.78716 6.21212C9.86206 6.28764 9.95118 6.34758 10.0494 6.38849C10.1475 6.4294 10.2529 6.45046 10.3592 6.45046C10.4656 6.45046 10.5709 6.4294 10.6691 6.38849C10.7673 6.34758 10.8564 6.28764 10.9313 6.21212L14.3878 2.74752V4.83434C14.3878 5.04803 14.4727 5.25297 14.6238 5.40407C14.7749 5.55517 14.9799 5.64006 15.1936 5.64006C15.4073 5.64006 15.6122 5.55517 15.7633 5.40407C15.9144 5.25297 15.9993 5.04803 15.9993 4.83434V1.61145C15.9993 1.18406 15.8295 0.774186 15.5273 0.471981C15.2251 0.169777 14.8152 0 14.3878 0Z" fill="#218DD2"></path>
    <path d="M5.068 9.78383L1.61145 13.2484V11.1616C1.61145 10.9479 1.52656 10.743 1.37546 10.5919C1.22435 10.4408 1.01941 10.3559 0.805723 10.3559C0.592032 10.3559 0.387093 10.4408 0.235991 10.5919C0.0848884 10.743 0 10.9479 0 11.1616V14.3845C0 14.8119 0.169777 15.2218 0.471982 15.524C0.774186 15.8262 1.18406 15.996 1.61145 15.996H4.83434C5.04803 15.996 5.25297 15.9111 5.40407 15.76C5.55517 15.6089 5.64006 15.4039 5.64006 15.1902C5.64006 14.9765 5.55517 14.7716 5.40407 14.6205C5.25297 14.4694 5.04803 14.3845 4.83434 14.3845H2.74752L6.21212 10.928C6.36385 10.7762 6.44908 10.5705 6.44908 10.3559C6.44908 10.1413 6.36385 9.93555 6.21212 9.78383C6.0604 9.63211 5.85463 9.54688 5.64006 9.54688C5.4255 9.54688 5.21972 9.63211 5.068 9.78383Z" fill="#218DD2"></path>
    <path d="M15.1922 10.3559C14.9785 10.3559 14.7736 10.4408 14.6225 10.5919C14.4714 10.743 14.3865 10.9479 14.3865 11.1616V13.2484L10.9299 9.78383C10.7782 9.63211 10.5724 9.54688 10.3578 9.54688C10.1433 9.54688 9.9375 9.63211 9.78578 9.78383C9.63406 9.93555 9.54883 10.1413 9.54883 10.3559C9.54883 10.5705 9.63406 10.7762 9.78578 10.928L13.2504 14.3845H11.1636C10.9499 14.3845 10.7449 14.4694 10.5938 14.6205C10.4427 14.7716 10.3578 14.9765 10.3578 15.1902C10.3578 15.4039 10.4427 15.6089 10.5938 15.76C10.7449 15.9111 10.9499 15.996 11.1636 15.996H14.3865C14.8138 15.996 15.2237 15.8262 15.5259 15.524C15.8281 15.2218 15.9979 14.8119 15.9979 14.3845V11.1616C15.9979 10.9479 15.913 10.743 15.7619 10.5919C15.6108 10.4408 15.4059 10.3559 15.1922 10.3559Z" fill="#218DD2"></path>
  </symbol>


</svg>